<?xml version="1.0" standalone="no"?>
<!DOCTYPE svg PUBLIC "-//W3C//DTD SVG 1.1//EN" "http://www.w3.org/Graphics/SVG/1.1/DTD/svg11.dtd" >
<svg xmlns="http://www.w3.org/2000/svg" xmlns:xlink="http://www.w3.org/1999/xlink" version="1.1">
<metadata></metadata>
<defs>
<font id="koombiwebregular" horiz-adv-x="678" >
<font-face units-per-em="1000" ascent="800" descent="-200" />
<missing-glyph horiz-adv-x="355" />
<glyph horiz-adv-x="0" />
<glyph unicode="&#xd;" horiz-adv-x="355" />
<glyph unicode=" "  horiz-adv-x="355" />
<glyph unicode="&#x09;" horiz-adv-x="355" />
<glyph unicode="&#xa0;" horiz-adv-x="355" />
<glyph unicode="!" horiz-adv-x="391" d="M42 505h59q-37 -55 -37 -144q0 -100 46 -100q34 0 34 37q0 30 -21 30q-3 0 -7 -1q-15 29 -15 60q0 20 6 42q22 81 104 81t117 -95q24 -65 24 -164q0 -98 -36 -163q-50 -90 -140 -90q-74 0 -118 41t-39 114h57q1 -100 95 -100q66 0 98 77q23 55 23 124q0 58 -15 118 q-22 87 -62 87q-32 0 -45 -32q-11 -26 -8 -60q41 -9 41 -71q0 -39 -26.5 -61.5t-66.5 -22.5q-103 0 -103 145q0 83 35 148z" />
<glyph unicode="&#x22;" horiz-adv-x="270" d="M93 94h81q13 -25 13 -62q0 -83 -51 -137h-65q33 40 39 92q7 59 -17 107z" />
<glyph unicode="#" horiz-adv-x="240" d="M104 450q39 0 65.5 -26.5t26.5 -65.5t-26.5 -65.5t-65.5 -26.5t-65.5 26.5t-26.5 65.5t26.5 65.5t65.5 26.5zM64 355q0 -38 37 -38q16 0 27 11t11 27q0 38 -37 38q-15 0 -26.5 -11.5t-11.5 -26.5zM104 210q39 0 65.5 -26.5t26.5 -65.5t-26.5 -65.5t-65.5 -26.5 t-65.5 26.5t-26.5 65.5t26.5 65.5t65.5 26.5zM64 115q0 -38 37 -38q16 0 27 11t11 27q0 38 -37 38q-15 0 -26.5 -11.5t-11.5 -26.5z" />
<glyph unicode="$" horiz-adv-x="501" d="M336 714h62l-238 -717h-64z" />
<glyph unicode="%" horiz-adv-x="65" d="M-160 58q1 1 21 15q7 5 25 24q32 -19 32 -70q0 -103 -112 -159q-76 -38 -176 -39q-80 -1 -147 26q-77 30 -116 90q-21 32 -22 55h63q19 -60 91 -92q59 -27 131 -27q74 0 124 25q97 49 100 120q1 25 -14 32z" />
<glyph unicode="&#x26;" horiz-adv-x="333" d="M40 -24q42 58 76 132q10 22 24 59q24 64 24 162q0 47 -6 87q-13 87 -65 175q-16 27 -55 85h57q95 -95 124 -216q1 -5 5 -21l6 -29q2 -9 5 -48q2 -24 2 -39q1 -175 -136 -347h-61z" />
<glyph unicode="'" horiz-adv-x="256" d="M102 92q13 7 26 7q22 0 37.5 -15.5t15.5 -37.5t-15 -37t-37 -15q-23 0 -38.5 14t-15.5 37q0 32 27 47z" />
<glyph unicode="(" horiz-adv-x="288" d="M149 395q22 0 36 -14t14 -36q0 -21 -14.5 -35.5t-35.5 -14.5t-36 14.5t-15 35.5t15 35.5t36 14.5zM149 176q22 0 36 -14t14 -36q0 -21 -14.5 -35.5t-35.5 -14.5t-36 14.5t-15 35.5t15 35.5t36 14.5z" />
<glyph unicode=")" horiz-adv-x="380" d="M300 368l-40 -26l-74 102l-70 -104l-43 30l79 98l-116 33l14 47l114 -37v118h45v-118l113 35l17 -43l-119 -33z" />
<glyph unicode="*" horiz-adv-x="679" d="M285 50v-52q-142 0 -203 65q-72 76 -72 201q0 247 187 244q95 -1 128 -77q32 75 136 77q177 3 178 -250q1 -146 -89 -214q-61 -46 -184 -44v50q63 2 80 5q85 15 120 106q17 44 17 87q0 201 -122 208q-43 2 -76 -30t-33 -75v-118h-54v116q0 43 -30 74.5t-73 31.5 q-129 0 -129 -191q0 -210 219 -214z" />
<glyph unicode="+" horiz-adv-x="65" d="M-292 -66v35q32 18 84 51q22 14 30 27h127v-45q-63 0 -110 -10q-26 -6 -59 -20h168v-40h-78q-46 0 -79 -22q-21 -14 -21 -32q0 -28 58 -30q51 -2 83 20q20 14 20 25h55q-1 -46 -63 -78q-31 -16 -96 -16q-113 0 -121 66q-7 53 49 69h-47z" />
<glyph unicode="," d="M208 347h230v-49h-48q-51 0 -83.5 -35.5t-33.5 -87.5q-1 -60 46 -93q40 -28 103 -28q69 0 115 58q43 53 43 124q0 99 -78 166q-62 53 -168 55q-125 2 -195 -71t-71 -200q-2 -132 74.5 -211t207.5 -75q168 5 216 118h62q-28 -89 -113 -134q-73 -39 -175 -38 q-152 1 -240 95t-90 247q-1 146 89 233t237 87q128 0 211 -68q91 -73 91 -198q0 -103 -58 -170q-61 -71 -162 -71q-84 0 -137 37q-61 42 -65 122q-5 94 56 138h-64v49z" />
<glyph unicode="-" horiz-adv-x="350" d="M35 280h255v-51h-255v51z" />
<glyph unicode="." horiz-adv-x="720" d="M271 508v-50q-59 1 -91 -12q-22 -9 -54 -40q-57 -55 -57 -162q0 -82 44 -135q47 -57 128 -57q70 0 110 33q44 36 44 104q0 35 -16 59q-19 28 -52 28q-46 0 -46 -48q0 -7 1 -14h-55q-3 23 -3 49q0 80 29 132q63 113 201 113q102 0 167 -82q62 -76 59 -180 q-3 -123 -74 -187t-194 -60v50q99 0 154 52.5t55 150.5q0 80 -45 139q-49 65 -127 65q-65 0 -111 -39.5t-55 -103.5q38 17 62 17q53 -1 83 -49q26 -41 26 -97q0 -90 -64 -139q-56 -43 -150 -45q-108 -2 -170 72q-59 69 -59 179q0 123 69 192.5t191 64.5z" />
<glyph unicode="/" horiz-adv-x="906" d="M462 607v53h369v-46q-54 -45 -100 -109q-111 -154 -116 -302q-2 -59 19 -98q26 -49 81 -50q39 -1 64 26t27 67q2 46 -21 84h61q9 -12 15 -41.5t5 -48.5q-3 -67 -44.5 -104.5t-109.5 -37.5q-115 0 -148 124q-8 30 -8 72q0 168 129 339q34 45 61 72h-284zM280 457 q-91 1 -151 -56t-61 -147t63 -146q61 -54 152 -55q90 -1 148 55t59 146t-59 146t-151 57zM548 256q1 -117 -74.5 -186.5t-193.5 -69.5q-117 0 -192 68q-78 70 -78 186q0 69 33 123q1 2 43 55q14 18 87 61l85 50q74 43 101 119h63q-22 -94 -122 -153q142 -17 205 -111 q42 -63 43 -142z" />
<glyph unicode="0" horiz-adv-x="504" d="M247 643q113 0 169 -105q44 -82 44 -206q0 -133 -41 -217q-54 -113 -173 -113q-121 0 -176 106q-43 82 -43 214q0 135 42 215q55 106 178 106zM246 592q-163 0 -163 -274q0 -265 165 -265q88 0 127 99q27 68 27 173q0 267 -156 267z" />
<glyph unicode="1" horiz-adv-x="350" d="M42 494v43q98 0 126 49q9 16 13 47h47v-627h-59v488h-127z" />
<glyph unicode="2" horiz-adv-x="476" d="M434 57v-49h-413q3 162 151 243l104 57q101 55 101 135q0 62 -39.5 101t-101.5 39q-80 0 -120 -48t-34 -128h-59q-1 12 -1 24q0 93 59 148t153 55q91 0 147.5 -52t56.5 -142q0 -102 -116 -170q-7 -4 -116 -65q-95 -53 -121 -148h349z" />
<glyph unicode="3" horiz-adv-x="502" d="M95 438h-57q-5 74 38 131q57 76 167 76q86 0 137 -40q57 -44 57 -128q0 -89 -83 -128q49 -6 80 -55q29 -44 28 -96q-1 -97 -64 -150q-59 -50 -158 -50q-100 0 -157.5 55t-60.5 155h63q1 -72 44.5 -113.5t115.5 -41.5q65 0 107 38.5t42 102.5q0 63 -47 97q-41 30 -107 30 h-47v49h49q52 0 88 28q40 31 40 81q0 54 -35.5 83t-90.5 29q-69 0 -109.5 -42t-39.5 -111z" />
<glyph unicode="4" horiz-adv-x="501" d="M290 216v304l-202 -304h202zM291 8v154h-261v57l274 420h51v-428h93v-49h-93v-154h-64z" />
<glyph unicode="5" horiz-adv-x="488" d="M413 578v52h-312l-47 -339h58q29 39 59.5 54.5t78.5 15.5q61 0 98 -46q35 -42 35 -105t-40 -108q-41 -48 -103 -48q-139 0 -152 117h-58q5 -85 63 -132q54 -44 141 -44q100 0 157.5 61t57.5 162q0 89 -54 144t-143 55q-74 0 -128 -39l27 200h262z" />
<glyph unicode="6" horiz-adv-x="484" d="M78 322q4 85 26 150q37 110 146 110q57 0 90.5 -30.5t34.5 -86.5h56q-1 82 -60 130q-41 34 -126 34q-222 0 -222 -335q0 -298 219 -298q93 0 147.5 58t54.5 152q0 92 -52 146.5t-143 54.5q-112 0 -171 -85zM123 299q47 57 121 57q44 0 82 -24q60 -38 60 -127 q0 -69 -40 -113t-108 -44q-51 0 -91 29q-56 41 -56 125q0 58 32 97z" />
<glyph unicode="7" horiz-adv-x="507" d="M40 612h427v-48q-137 -176 -208 -366q-24 -64 -53 -194h-59q23 112 58 211q30 85 99 209q36 65 97 139h-361v49z" />
<glyph unicode="8" horiz-adv-x="522" d="M274 630q77 0 129 -39q58 -43 58 -117q0 -93 -80 -131q101 -49 101 -151q0 -89 -58.5 -142.5t-148.5 -53.5q-93 0 -152 48q-64 51 -64 142q0 53 28 96t77 60q-83 30 -83 129q0 75 61 119q54 40 132 40zM272 313q-66 0 -108 -31q-47 -35 -47 -99q0 -62 47 -100 q43 -35 107 -35t106 35q46 38 46 100q0 63 -45 98q-41 32 -106 32zM274 581q-54 0 -92 -28q-42 -31 -42 -83q0 -107 136 -107q52 0 89.5 28.5t37.5 78.5q0 51 -38.5 81t-90.5 30z" />
<glyph unicode="9" horiz-adv-x="483" d="M388 303q-59 -85 -171 -85q-91 0 -143 54.5t-52 146.5q0 94 54.5 152t147.5 58q219 0 219 -298q0 -335 -222 -335q-85 0 -126 34q-59 48 -60 130h56q1 -56 34.5 -86.5t90.5 -30.5q109 0 146 110q22 65 26 150zM343 326q32 39 32 97q0 84 -56 125q-40 29 -91 29 q-68 0 -108 -44t-40 -113q0 -89 60 -127q38 -24 82 -24q74 0 121 57z" />
<glyph unicode=":" horiz-adv-x="642" d="M247 403v52q-81 4 -135 -29q-98 -60 -98 -189q0 -116 90 -180q79 -57 199 -57q137 0 218 76t81 212q0 193 -124 288q-111 85 -309 83v-50q36 0 62 -4q-5 -19 -5 -35q0 -59 55 -88q43 -23 107 -23q47 0 96 29q59 -91 59 -203q0 -105 -64.5 -168.5t-169.5 -63.5 q-98 0 -162 44q-74 51 -74 145q0 102 75 144q37 21 99 17zM288 598q106 -23 156 -70q-29 -20 -70 -20q-23 0 -43 7q-46 16 -46 61q0 11 3 22z" />
<glyph unicode=";" horiz-adv-x="754" d="M160 306q-15 -14 -79 -78q33 -9 33 -40q0 -7 -7 -26.5t-4 -33.5q16 -82 155 -80q74 1 123 39q55 42 55 113q0 70 -48 114.5t-118 43.5q-34 -1 -61 -14q-18 -9 -49 -38zM92 401q-4 -21 6 -41h-59q-3 14 -3 28q0 67 49 98q30 19 67 18q77 -2 92 -65q95 68 206 67 q118 -1 191 -73t73 -189q0 -59 -23 -112q-25 -59 -71 -88q-71 -45 -181 -45v48q136 0 189 90q27 46 27 105q0 92 -55.5 151t-147.5 59q-94 0 -169 -50q78 7 132 -36q82 -66 81 -164q-1 -97 -72 -153q-65 -52 -165 -52q-83 0 -129 17q-68 26 -84 92q-3 12 -3 21q0 8 5.5 24.5 t5.5 23.5q0 12 -10 12q-18 0 -35 -25v65q57 66 92 98l89 82q1 5 1 10q0 36 -47 34q-43 -1 -52 -50z" />
<glyph unicode="&#x3c;" horiz-adv-x="646" d="M99 285q-26 -36 -30 -97q-10 -148 95 -231q63 -50 168 -50q89 0 140 33q94 60 97 145h61q0 -113 -97 -176q-83 -55 -202 -56q-154 -1 -241 88t-79 242q7 123 86 176q0 27 12 58q34 87 136 91q33 1 63.5 -16t37.5 -47q20 61 106 63q65 2 101 -42q34 -40 34 -106v-31h-362 q-51 0 -69 -7q-6 -29 1 -71q14 -82 76 -128q37 -27 111 -28q101 -1 157 76q30 41 26 104h59q0 -110 -68 -171.5t-179 -61.5q-58 0 -93 12q-100 34 -135 136q-16 47 -12 95zM318 377q-1 32 -21.5 55t-51.5 23q-48 0 -70 -33q-7 -11 -15 -47q14 2 30 2h128zM376 377h151 q-3 78 -79 78q-67 0 -72 -78z" />
<glyph unicode="=" horiz-adv-x="65" d="M-283 45v-42h28q-11 -14 -11 -41q0 -30 31 -45q24 -12 57 -12t58 14q29 16 32 47q3 30 -8 47h58q9 -26 7 -54q-4 -54 -49 -82q-39 -24 -97 -24q-151 0 -151 111q0 63 45 81z" />
<glyph unicode="&#x3e;" horiz-adv-x="684" d="M199 457q66 0 66 -80h-269v-48h87q-63 -35 -63 -141q0 -71 36 -122q39 -56 106 -67q17 -3 48 -1q68 4 100 40q14 16 14 53q0 25 -10 39q-8 11 -32 25q-19 11 -19 19q0 24 68 24q77 0 72 -28q-1 -4 -32 -24q-12 -8 -17 -15q-12 -18 -12 -43q0 -88 113 -90q115 -2 165 91 q24 45 24 99q0 148 -129 183q-22 6 -54 6h-62q0 77 66 80q71 3 71 -78h58q0 130 -129 130q-50 0 -83.5 -29t-39.5 -78q-2 -17 -2 -47v-26h103q22 0 31 -1q48 0 81 -43q30 -39 31 -89q1 -40 -14 -74q-17 -39 -49 -55q-27 -13 -47 -15q-69 -5 -74 30q-3 24 25 40q36 21 36 49 q0 9 -1 15q-7 38 -50 51q-26 8 -77 8q-55 0 -81 -8q-45 -14 -51 -56q-6 -40 31 -56q30 -13 30 -35q0 -39 -60 -39q-63 0 -96 42q-30 38 -30 103q0 53 37 97q22 26 71 34q12 2 34 2h104v27q0 42 -7 66q-25 86 -118 87q-43 1 -64 -10q-65 -32 -65 -120h58q0 78 71 78z" />
<glyph unicode="?" horiz-adv-x="906" d="M615 203q-1 -59 20 -98q26 -49 80 -50q39 -1 64 26t27 67q2 46 -21 84h61q9 -12 15 -41.5t5 -48.5q-3 -67 -44.5 -104.5t-109.5 -37.5q-114 0 -148 124q-8 29 -8 65q0 99 48 174q29 45 63 76q22 20 60 47h-244v49l177 65l48 10q-11 0 -16 -1q-14 0 -20 -1h-210v52h369 v-50l-193 -66l-50 -10q1 0 23 2l11 1h209v-45q-101 -57 -150 -115q-64 -76 -66 -174zM280 457q-91 1 -151 -56t-61 -147t63 -146q61 -54 152 -55q90 -1 148 55t59 146t-59 146t-151 57zM548 256q1 -117 -74.5 -186.5t-193.5 -69.5q-117 0 -192 68q-78 70 -78 186 q0 69 33 123q1 2 43 55q14 18 87 61l85 50q74 43 101 119h63q-22 -94 -122 -153q142 -17 205 -111q42 -63 43 -142z" />
<glyph unicode="@" horiz-adv-x="439" d="M170 459h58q19 -24 19 -68q0 -45 -35.5 -68t-81.5 -20q-57 4 -87 40t-30 94q0 79 54 124q50 42 131 42q91 0 146 -62.5t55 -154.5q0 -100 -89 -163q-23 -16 -93 -44q-55 -22 -63 -41q-5 -12 -1 -36h-57q-3 16 -3 28q0 53 79 85q40 16 82 36q87 41 87 137q0 68 -37 115 q-40 51 -106 51q-55 0 -90 -28q-38 -30 -38 -84q0 -83 65 -87q52 -3 54 45q2 38 -19 59zM125 79q42 0 42 -41q0 -42 -41 -42q-17 0 -30 12t-13 29q0 18 12 30t30 12z" />
<glyph unicode="A" horiz-adv-x="65" d="M-60 620q18 -13 39 -10q42 6 38 48q-4 44 -40 41q-37 -3 -37 -30v-49zM-114 664q0 31 -32 31q-30 0 -46 -26v56q30 25 65 22q25 -2 48 -25q23 27 69 25q37 -2 59.5 -25.5t24.5 -60.5q2 -59 -44 -84q-24 -13 -52 -11q-27 2 -38 9v-141q-6 19 -28 66q-13 28 -26 49v115z " />
<glyph unicode="B" horiz-adv-x="588" d="M280 457q-91 1 -151 -56t-61 -147t63 -146q61 -54 152 -55q90 -1 148 55t59 146t-59 146t-151 57zM548 256q1 -118 -74 -187t-194 -69q-117 0 -192 68q-78 70 -78 186q0 69 33 123q11 14 43 55q12 15 87 61q64 39 109 114q9 15 24 53h62q-20 -85 -94 -150q138 0 224 -104 q49 -60 50 -150zM79 652q25 36 69 36q26 0 49 -16q36 -25 36 -69q0 -26 -16 -49q-25 -36 -69 -36q-26 0 -49 16q-36 25 -36 69q0 26 16 49zM105 603q0 -18 12.5 -30t30.5 -12t30 12t12 30t-12.5 30t-30.5 12t-30 -12t-12 -30zM381 621q25 36 69 36q26 0 49 -16 q36 -25 36 -69q0 -26 -16 -49q-25 -36 -69 -36q-26 0 -49 16q-36 25 -36 69q0 26 16 49zM407 572q0 -18 12.5 -30t30.5 -12t30 12t12 30t-12.5 30t-30.5 12t-30 -12t-12 -30z" />
<glyph unicode="C" horiz-adv-x="512" d="M93 319l80 80q11 11 11 27q0 33 -45 29q-24 -2 -39 -20.5t-15 -43.5q0 -14 5 -26h-58q-4 16 -4 31q0 49 26.5 79t74.5 33q96 7 111 -67q87 63 208 67q95 3 169 -51q-16 -17 -34 -44q-57 43 -132 44q-89 1 -149 -37q194 -27 210 -224q6 -74 -26 -131q-36 -65 -108 -65 q-95 1 -110 52q-17 -52 -116 -52q-45 0 -76.5 29.5t-33.5 74.5q-1 12 5.5 32t6.5 29q0 15 -17 15q-11 0 -32 -21v60q36 48 88 100zM113 172q0 -2 -8 -33q-4 -15 -4 -26q0 -59 63 -59q37 0 57.5 23.5t20.5 60.5v57h55v-58q0 -92 77 -85q40 4 62 45q19 35 19 79q0 77 -50 136 q-52 63 -128 63q-49 0 -78 -27q-60 -56 -124 -126q38 -4 38 -50z" />
<glyph unicode="D" horiz-adv-x="347" d="M71 401h-56q23 108 148 108q71 0 110 -55q36 -49 34 -122q-1 -40 -13 -114q-13 -78 -15 -113q-3 -52 18 -100h-58q-9 16 -14 39q-20 -42 -89 -45q-63 -3 -96 44q-28 39 -29 105q-1 70 40 119t110 51q51 1 86 -20q3 44 3 48q-1 45 -23 77q-25 37 -68 37q-75 0 -88 -59z M240 246q-38 24 -74 22q-47 -2 -73 -37q-24 -31 -23 -80q2 -102 75 -99q51 2 69 41q6 14 9 37l5 44q0 3 12 72z" />
<glyph unicode="E" horiz-adv-x="365" d="M-4 481h310v-45l-147 -66q-9 -4 -32 -8h179v-47q-3 -1 -77 -32q-159 -67 -159 -154q0 -79 99 -79q41 0 69.5 24t28.5 64q0 21 -10 42h59q8 -16 9 -45q2 -67 -58 -110q-37 -27 -100 -27q-62 0 -100 24q-65 41 -57 121q6 64 61 111q48 42 116 59h-165v45l131 63q15 7 39 12 h-196v48z" />
<glyph unicode="F" horiz-adv-x="507" d="M106 360h-59q-3 14 -3 28q0 67 49 98q30 19 67 18q77 -2 92 -65q95 68 206 67q97 -1 168 -59q-11 -14 -33 -45q-56 50 -133 50q-94 0 -169 -50q78 7 132 -36q82 -66 81 -164q-1 -97 -72 -153q-65 -52 -165 -52q-83 0 -129 17q-68 26 -84 92q-3 12 -3 21q0 8 5.5 24.5 t5.5 23.5q0 12 -10 12q-18 0 -35 -25v65q66 73 91 95l58 51q32 28 33 40q2 21 -11.5 30t-35.5 8q-43 -1 -52 -50q-4 -21 6 -41zM88 228q34 -7 34 -40q0 -7 -7 -26.5t-4 -33.5q16 -82 155 -80q74 1 123 39q55 42 55 113t-47.5 115t-118.5 43q-57 -1 -110 -52q-27 -26 -80 -78 z" />
<glyph unicode="G" horiz-adv-x="670" d="M247 458v-52q-50 0 -67 -4q-30 -7 -55 -30q-57 -53 -57 -150q0 -65 29 -112q34 -56 95 -56q46 0 73 35q24 31 24 79v63h60v-61q0 -50 23 -81q26 -36 74 -36q65 0 100 78q27 60 25 137q-3 123 -66 221q-33 -31 -108 -31q-65 0 -104 27q-46 32 -46 94q0 13 3 26 q-11 1 -59 5v49q136 -3 219 -35q108 -42 165 -143q51 -90 55 -206q4 -109 -35 -183q-48 -92 -150 -92q-51 0 -77 13q-31 16 -49 60q-35 -73 -127 -74q-90 -1 -137 66q-40 56 -45 151q-6 127 82 199q57 46 155 43zM310 598q-3 -11 -3 -22q0 -34 30 -52q25 -15 61 -15 q42 0 68 19q-26 24 -69 44q-25 11 -87 26z" />
<glyph unicode="H" horiz-adv-x="496" d="M80 355h-58q-15 37 -10 69q6 39 34.5 61t67.5 20q96 -5 99 -105q2 -58 -27 -111l-56 -81q-53 -77 -56 -124q29 17 63 17q28 0 77.5 -24.5t77.5 -24.5q44 0 72 28.5t32 72.5q4 52 -26 87q-19 22 -73 54q-74 44 -72 119q1 44 31.5 69t75.5 25q46 0 75 -25t29 -70 q0 -25 -11 -52h-59q15 27 11 52q-7 42 -44 43q-41 2 -47 -40q-4 -30 16 -54q13 -16 50 -39q54 -34 77 -66q28 -40 27 -96q-2 -75 -47 -117.5t-121 -44.5q-26 -1 -80 23q-57 24 -81 26q-52 3 -63 -40h-52q0 124 48 195q20 28 60 86q31 48 36 96q3 29 -7 48q-12 23 -40 22 q-37 -1 -41 -40q-4 -38 12 -59z" />
<glyph unicode="I" horiz-adv-x="663" d="M576 394q0 114 -128 114q-43 0 -76.5 -23t-42.5 -64q-6 -27 -6 -66v-26h100q36 0 54 -5q-12 -22 -58 -35q-25 -7 -114 -7q-64 0 -91 -9q-50 -17 -50 -67q0 -90 152 -90q54 0 94 15q57 21 57 65q0 30 -18 51q12 3 45 22q21 12 31 27q33 -37 33 -93t-42 -97 q-64 -62 -201 -62t-201 62q-42 41 -42 97q0 87 64 115q25 11 71 11h100v26q0 153 -125 153q-128 0 -128 -114l4 -16h58q-6 11 -5 24q3 55 72 54q62 -1 66 -80h-66q-103 0 -149 -81q-21 -37 -21 -88q0 -128 119 -182q75 -34 182 -34q109 0 184 34q118 54 118 182 q0 90 -60 135q20 18 20 52zM507 368q-3 3 -8 3q-22 5 -52 5h-66q4 79 66 80q71 1 72 -54q0 -19 -12 -34zM315 236q49 0 66 -4q30 -7 30 -31q0 -38 -95 -38q-96 0 -96 40q0 33 95 33z" />
<glyph unicode="J" horiz-adv-x="488" d="M119 353h-57q-9 51 9 88q31 64 105 64q42 0 71 -25.5t32 -67.5q66 95 188 92q83 -2 131 -37q-8 -7 -17 -20q-6 -7 -15 -22q-21 13 -70 24q-14 3 -34 3q-105 0 -158 -95q11 2 22 2q55 0 99 -39q58 -51 58 -137q0 -35 -17.5 -72t-43.5 -60q-67 -57 -166 -56q-111 2 -174 63 t-64 171q0 23 5 67h49q-1 -44 53 -45q71 -2 103 87q13 35 -1 72q-15 42 -52 42q-61 0 -61 -68q0 -17 5 -31zM73 220q4 -117 97 -156q34 -14 90 -16q62 -2 110.5 35t52.5 98q4 53 -25.5 91t-82.5 38q-20 0 -26 -2q-11 -4 -27 -25q-40 -55 -89 -75q-19 -8 -47 -8q-44 0 -53 20 z" />
<glyph unicode="K" horiz-adv-x="930" d="M357 639h62l-78 -138q68 -6 117 -42q23 43 82 45q64 2 94 -50q39 49 106 48q152 -3 150 -254q-2 -256 -173 -254q-127 1 -141 139h57q2 -43 27 -67t67 -20q59 5 86 76q19 50 19 122q0 205 -94 205q-30 0 -54 -18t-24 -47v-95h-54v89q0 27 -15 49t-41 23q-33 1 -52 -26 q64 -93 62 -190q-2 -116 -72.5 -181.5t-185.5 -59.5q-97 5 -182 31q-7 2 -15 2q-28 0 -39 -17h-58l86 154q-59 56 -54 147q5 92 90 155q48 36 152 41zM252 452q-50 -2 -89.5 -29t-56.5 -73q-10 -27 -10 -55q0 -46 26 -81zM313 451l-63 -113q28 23 68 22t67.5 -33t27.5 -73 q0 -69 -46.5 -108t-116.5 -40q-55 -1 -113 25l-35 -65q15 12 49 2q75 -22 151 -24q87 -2 143 50.5t57 139.5q2 106 -66 170q-41 39 -123 47zM216 274l-52 -94q45 -21 72 -22q63 -3 96 30q-19 -7 -37 -7q-28 0 -51 19q-34 29 -28 74zM268 269q0 -17 11.5 -29t28.5 -12 q18 0 30.5 11.5t12.5 29.5q0 17 -12.5 29t-29.5 12t-29 -12t-12 -29z" />
<glyph unicode="L" horiz-adv-x="679" d="M249 70q-1 -30 -32 -51q-27 -19 -59 -19q-75 0 -114 80q-29 58 -34 145q-8 134 86 222q64 60 158 60q69 0 114 -36q49 -39 48 -107q-1 -63 -47 -113q-22 -24 -34 -40q-30 -40 -30 -99q15 15 39 14q4 0 51.5 -35t59.5 -33q64 8 98 100q26 71 27 149q1 129 -64 217 q-72 98 -197 99q-164 2 -224 -113h-61q32 85 116 128q73 37 172 37q149 0 235 -110q78 -99 82 -253q3 -109 -41 -200q-54 -112 -150 -112q-36 0 -58 15q-9 6 -28 30q-13 16 -26 18q-25 3 -25 -25q0 -21 7 -34h-54q-15 32 -15 66zM80 163q29 38 80 37q74 -2 89 -74 q1 56 24 96l53 66q30 38 31 74q1 47 -29.5 70t-78.5 22q-103 -2 -158 -108q-22 -42 -22 -110q0 -45 11 -73zM108 99q0 -19 13 -32t32 -13t32.5 12.5t13.5 31.5t-13.5 32.5t-32.5 13.5t-32 -13t-13 -32z" />
<glyph unicode="M" horiz-adv-x="633" d="M91 352h-56q-4 58 30.5 91.5t93.5 32.5q61 -1 91 -45q22 -33 24 -124h-75q-129 0 -129 -108q0 -77 71 -116q57 -32 140 -32q116 0 184 62.5t68 177.5q0 116 -60 198q-37 -31 -106 -31q-64 0 -104 27q-47 31 -47 92q0 14 3 28q-48 5 -60 4v50q87 -2 132 -9 q141 -22 220 -116.5t82 -238.5q1 -61 -21 -120q-23 -62 -66 -102q-79 -74 -224 -74q-114 0 -186 45q-86 53 -86 161q0 67 51 110q48 41 117 41h36q0 70 -58 69q-67 -2 -65 -73zM278 598q-3 -11 -3 -21q0 -47 53 -63q20 -6 39 -6q44 0 67 22q-54 48 -156 68z" />
<glyph unicode="N" horiz-adv-x="730" d="M110 272q-29 -30 -33 -74q-6 -72 55 -112q52 -35 128 -34q53 0 95 28q59 39 59 110q0 31 -16 55.5t-46 24.5q-40 0 -35 -46h-53q-1 16 -1 38q0 41 3 67q6 52 26 86q55 93 169 93t188 -105q41 -58 41 -151q0 -45 -22 -99q-23 -57 -55 -85q-78 -69 -179 -68v50q84 0 140 61 q54 58 56 143q2 87 -56 151q-45 50 -111 50q-64 0 -101.5 -38.5t-40.5 -102.5q13 10 32 10q6 0 19 -3t19 -3q17 -6 35 -22q42 -38 46 -101q5 -86 -61 -142q-61 -53 -149 -53q-81 0 -142 30q-72 35 -93 105q-12 40 -6 80q13 86 81 112h-117v51h222q0 26 -4 38q-13 40 -52 40 q-51 0 -51 -70h-56q-5 25 5 49q29 70 105 72q60 1 90 -43q17 -25 22 -91q1 -14 0 -44h-16q-85 0 -140 -57z" />
<glyph unicode="O" horiz-adv-x="669" d="M104 527h-62q65 153 260 153q167 0 251 -109q76 -98 76 -269q0 -111 -33 -191q-45 -109 -142 -111q-105 -3 -135 73q-29 -75 -125 -73q-98 2 -145 78q-39 63 -39 168q0 111 64 184q67 77 176 77h78v-51h-68q-91 0 -143 -63q-49 -58 -49 -151q0 -72 27 -123q33 -64 99 -64 q43 0 69.5 33t26.5 76v88h58v-84q0 -41 24 -75q26 -38 66 -38q73 0 108 87q25 63 24 150q-2 147 -58 234q-67 104 -206 104q-145 0 -202 -103z" />
<glyph unicode="P" horiz-adv-x="653" d="M586 407q4 -17 2 -47t-9 -46q8 -9 13 -20q20 -42 21 -78q1 -37 -10 -73q-47 -152 -293 -152q-242 0 -290 151q-10 32 -10 67q0 59 30.5 103t86.5 59q19 5 52 5h59q-4 79 -59 80q-69 1 -72 -54q-1 -13 5 -24h-58q-5 13 -5 31q0 49 42 76q35 23 87 23q92 0 112 -87 q6 -26 6 -66v-26h-89q-51 0 -70 -7q-40 -15 -60 -67q-10 -25 -8 -52q11 -159 242 -159q137 0 201 62q42 41 42 99q0 22 -6 45q-29 -34 -72 -34q-46 0 -67 35q-18 30 -15 78h-82v26q0 45 7 67q29 92 137 87q83 81 85 136h58q-9 -84 -88 -144q21 -8 29 -15q34 -29 46 -79z M398 376q1 8 9 38q1 6 15 41q-48 -11 -52 -79h28zM480 453q-17 -26 -30 -76q54 0 85 -24q5 83 -55 100zM445 329q-5 -58 26 -65q28 -7 50 35q-30 30 -76 30z" />
<glyph unicode="Q" horiz-adv-x="70" d="M-70 158v-346h-52q-35 26 -67 35q-58 16 -91 16q-57 0 -136 -30q-56 -21 -76 -25q-33 -6 -57 -4q-85 8 -85 92q0 35 28.5 59.5t64.5 24.5q14 0 30 -4v-46q-10 2 -18 2q-31 0 -41 -25q-10 -24 5 -38q12 -13 38 -13q32 0 96 23q94 34 152 34q77 0 154 -37v216q22 17 55 66z " />
<glyph unicode="R" horiz-adv-x="979" d="M189 457q66 0 66 -80h-78q-78 0 -124 -57q-43 -52 -43 -132q0 -64 30 -113q33 -54 91 -71q28 -8 69 -6q95 5 122 70q31 -70 123 -70q116 0 165 91q24 45 24 99q0 148 -129 183q-22 6 -54 6h-62q0 77 66 80q71 3 71 -78h58q0 130 -129 130q-50 0 -83.5 -29t-39.5 -78 q-2 -17 -2 -47v-26h103q22 0 31 -1q48 0 81 -43q30 -39 31 -89q1 -38 -15 -74q-17 -39 -48 -56q-25 -14 -47 -14q-47 0 -82 28.5t-35 74.5v55h-54v-59q0 -44 -37 -72q-33 -26 -79 -26q-55 0 -85 46q-26 39 -26 97q0 114 108 131q13 2 34 2h104v27q0 42 -7 66q-25 86 -118 87 q-43 1 -64 -10q-65 -32 -65 -120h58q0 78 71 78zM703 401h-56q23 108 148 108q71 0 110 -55q36 -49 34 -122q-1 -40 -13 -114q-13 -78 -15 -113q-3 -52 18 -100h-58q-9 16 -14 39q-20 -42 -89 -45q-63 -3 -96 44q-28 39 -29 105q-1 70 40 119t110 51q51 1 86 -20q3 44 3 48 q-1 45 -23 77q-25 37 -68 37q-75 0 -88 -59zM872 246q-38 24 -74 22q-47 -2 -73 -37q-24 -31 -23 -80q2 -102 75 -99q51 2 69 41q6 14 9 37l5 44q0 3 12 72z" />
<glyph unicode="S" horiz-adv-x="63" d="M-511 489q-13 -2 -25 -2q-37 0 -60.5 22t-23.5 58q0 126 261 126q186 0 235 -47q28 -27 28 -65q0 -87 -100 -87q-28 0 -53 9q-65 23 -66 81q-1 37 24 54q-19 2 -66 2q-126 0 -181 -36q-21 -14 -21 -37q0 -33 36 -33q6 0 12 1v-46zM-209 626q-40 0 -46 -30q-7 -36 38 -49 q10 -3 18 -3q45 0 45 37q0 20 -17 32.5t-38 12.5z" />
<glyph unicode="T" horiz-adv-x="666" d="M399 367q-23 -18 -57 -18q-37 0 -61 20t-24 56q0 84 96 84q48 0 76 -40q25 -36 25 -86q0 -64 -39 -97t-104 -33q-132 0 -139 119q-1 11 5 34t5 33q-2 21 -26 19q-34 -3 -54 -40q-33 -60 -33 -161q0 -70 33 -131q40 -73 104 -73q36 0 57 35q19 30 19 68v48h55v-46 q0 -43 28 -74.5t70 -31.5q76 0 109 92q23 63 23 156q0 134 -57 223q-67 105 -194 105q-155 0 -216 -98h-64q77 148 283 148q72 0 134 -30q67 -32 103 -90q70 -112 70 -253q0 -199 -85 -271q-42 -36 -97 -36q-105 0 -130 81q-22 -81 -112 -79q-99 2 -150 90q-42 72 -42 178 q0 92 33 159q43 87 126 83q71 -3 71 -69q0 -11 -5 -35.5t-4 -37.5q6 -65 88 -65q31 0 53.5 17t26.5 47zM348 462q-36 -2 -36 -33q0 -15 13 -24t28 -8q35 2 36 30q1 16 -12 26t-29 9z" />
<glyph unicode="U" horiz-adv-x="666" d="M399 367q-23 -18 -57 -18q-37 0 -61 20t-24 56q0 84 96 84q48 0 76 -40q25 -36 25 -86q0 -64 -39 -97t-104 -33q-132 0 -139 119q-1 11 5 34t5 33q-2 21 -26 19q-34 -3 -54 -40q-33 -60 -33 -161q0 -70 33 -131q40 -73 104 -73q42 0 42 40q0 -8 -3 -8q-7 0 -28 31 q-31 46 -31 58q0 71 129 71q131 0 131 -76q0 -10 -31.5 -42t-31.5 -38q0 -37 52 -37q76 0 109 92q23 63 23 156q0 134 -57 223q-67 105 -194 105q-155 0 -216 -98h-64q77 148 283 148q72 0 134 -30q67 -32 103 -90q70 -112 70 -253q0 -199 -85 -271q-42 -36 -97 -36 q-120 0 -120 93q0 31 16 48q5 5 31 18q16 8 16 16q0 12 -30 21q-20 6 -39 6q-71 0 -71 -25q0 -9 18 -20q24 -15 26 -17q16 -17 16 -49q0 -91 -105 -89q-99 2 -150 90q-42 72 -42 178q0 92 33 159q43 87 126 83q71 -3 71 -69q0 -11 -5 -35.5t-4 -37.5q6 -65 88 -65 q31 0 53.5 17t26.5 47zM348 462q-36 -2 -36 -33q0 -15 13 -24t28 -8q35 2 36 30q1 16 -12 26t-29 9z" />
<glyph unicode="V" horiz-adv-x="672" d="M191 659q61 2 144 -13q259 -47 292 -329q4 -34 4 -61q0 -94 -38 -166q-48 -91 -155 -90q-39 0 -59 9q-43 19 -56 54q-26 -67 -141 -63q-81 3 -129 55t-43 133q3 52 34 92q12 16 24 21h-63v48h267q-3 13 -20 42q-21 25 -59 25q-65 0 -86 -62h-55q1 9 7 30q21 48 67 70 q25 12 71 12q69 0 104 -48q26 -35 32 -117h-148q-47 0 -80 -31.5t-36 -78.5q-5 -85 66 -125q26 -15 63 -12q42 3 69.5 26t27.5 63v75h56v-74q0 -40 36 -67q33 -26 74 -23q70 5 100 118q17 63 9 135q-10 90 -64 183q-42 -33 -123 -31q-76 2 -111 48q-24 32 -24 67q0 13 3 31 q-15 3 -60 3v51zM310 598q-3 -11 -3 -21q0 -68 92 -68q49 0 69 22q-32 26 -71 43q-21 9 -87 24z" />
<glyph unicode="W" d="M191 382h-58q24 127 211 127q103 0 155 -39q57 -43 70 -143h-259q-111 0 -166 -45q-75 -61 -75 -160q0 -125 74 -189q70 -61 196 -61q99 0 168 58q74 61 71 159h60q0 -93 -52 -158q-91 -115 -253 -113q-149 2 -233 75q-90 78 -90 225q0 118 86 197q67 62 210 62h192 q-21 81 -148 81q-139 0 -159 -76z" />
<glyph unicode="X" horiz-adv-x="674" d="M40 525q71 142 285 138q146 -3 229 -102q78 -93 80 -242q2 -131 -32 -211q-48 -114 -163 -108q-31 2 -59 9q-43 18 -56 54q-17 -43 -77 -58q-25 -6 -64 -5q-80 3 -126.5 56.5t-46.5 134.5q0 60 38 96t99 39q13 1 35 -1q27 -1 36 -1q72 0 76 45q4 43 -27 67q-27 22 -71 22 q-13 0 -25 -2q27 -15 27 -54q0 -77 -83 -77q-36 0 -58.5 22.5t-22.5 58.5q0 26 14 46q39 56 146 56q67 0 110 -33q47 -36 47 -101q0 -22 -6 -41q-21 -65 -132 -58q-139 9 -144 -85q-4 -84 67 -124q26 -15 63 -12q42 3 69.5 26t27.5 63v75h56v-74q0 -40 36 -67q33 -26 74 -23 q69 5 100 119q14 53 15 136q1 175 -110 258q-56 42 -143 46q-126 6 -201 -64q-4 -4 -18 -24h-65zM84 405q0 -32 34 -32q32 0 32 34q0 32 -34 32q-32 0 -32 -34z" />
<glyph unicode="Y" horiz-adv-x="720" d="M622 264q0 79 -52 135t-131 59q-94 4 -149 -76q-18 -26 -25 -61q17 10 48 10q83 0 113 -92q9 -28 8 -57q-3 -86 -52.5 -133.5t-136.5 -48.5q-112 -2 -175 70q-60 68 -60 182q0 117 65.5 186t182.5 70v-50q-85 -2 -137 -60.5t-52 -144.5q0 -130 93 -180q36 -19 71 -19 q65 0 105.5 39t35.5 103q-2 28 -15 50q-16 28 -40 30q-60 6 -60 -43q0 -12 4 -27h-55q-6 30 -6 64q0 42 9 72q29 96 111 142q43 24 116 24q108 0 175 -71.5t67 -180.5q0 -123 -80 -191q-75 -65 -200 -66v50q20 -4 38 2q22 7 22 26q0 8 -14 60q-8 30 -8 51q0 80 63 105 q18 7 44 7q52 0 77 -36zM508 67q46 23 77 63q20 26 20 58q0 25 -16 42.5t-41 17.5q-35 0 -47 -31q-10 -25 -4 -61q6 -21 15 -63q1 -11 -4 -26z" />
<glyph unicode="Z" horiz-adv-x="280" d="M120 723h81q13 -25 13 -62q0 -83 -51 -137h-65q33 40 39 92q7 59 -17 107z" />
<glyph unicode="[" horiz-adv-x="1146" d="M193 222q38 -4 38 -50q0 -2 -8 -33q-4 -15 -4 -26q0 -59 63 -59q37 0 57.5 23.5t20.5 60.5v57h55v-58q0 -92 77 -85q40 4 62 45q19 35 19 79q0 71 -41.5 125.5t-109.5 70.5q-9 2 -24 2q-51 0 -81 -27q-52 -47 -124 -125zM657 64q-26 24 -35 47q-29 -112 -126 -111 q-95 1 -110 52q-17 -52 -116 -52q-45 0 -76.5 29.5t-33.5 74.5q-1 12 5.5 32t6.5 29q0 15 -17 15q-11 0 -32 -21v60q50 61 89 100l79 79q11 11 11 27q0 34 -45 30q-24 -2 -39 -20.5t-15 -43.5q0 -14 5 -26h-58q-4 15 -4 30q0 30 14 57q-26 6 -52 -30q-41 -56 -41 -177 q0 -156 88 -244h-73q-37 47 -56 121q-18 68 -16 134q4 132 57 204q35 47 88 47q25 0 49 -12q23 11 43 13q96 7 111 -67q87 67 208 67q87 0 152 -39q21 19 48 27q21 4 42 9q13 3 56 3q189 0 203 -180h-231q-40 0 -57 -3q-28 -5 -56 -26q-60 -45 -59 -110q1 -74 68 -111 q54 -30 134 -29q55 1 101 10q73 15 78 47h61q-3 -21 -18 -38q-47 -53 -149 -67q-4 0 -35 -3q-60 -13 -60 -49q0 -57 104 -54q53 2 82 15q15 7 46 33q13 11 17 33q4 20 0 30h59q1 -10 1 -19q0 -67 -65 -108q-56 -35 -127 -35q-57 0 -83 6q-100 23 -98 90q1 46 36 59 q-60 8 -87 18q-35 13 -72 47zM420 420q157 -21 199 -162q22 55 95 98q36 21 125 21h161q-23 46 -53 63.5t-82 17.5q-114 0 -142 -70q-2 -5 -4 -14h-60q0 23 21 53q-57 29 -111 30q-89 1 -149 -37z" />
<glyph unicode="\" horiz-adv-x="634" d="M239 481q-17 18 -58 19q-73 1 -119 -65q-38 -54 -48 -133q-3 -24 -3 -55q0 -89 33 -184q7 -19 30 -58h65q-81 111 -73 248q6 97 44 155q25 38 65 37q12 0 15 -6q-29 -37 -29 -65h60q1 5 4 14q31 70 142 70q52 0 82 -17.5t53 -63.5h-161q-135 0 -194 -77q-39 -51 -39 -111 q0 -85 64 -136q56 -45 146 -54q20 -2 65 -2q43 0 67 5l-52 -83h61q42 44 89 38q31 -4 31 -36q0 -13 -8 -28q-19 -35 -90 -35q-43 0 -66 16v-58q21 -11 78 -11q64 0 105 29q47 33 47 94q0 41 -23.5 65t-64.5 24q-18 0 -35 -5l58 92h-64q-20 -53 -148 -55q-80 -1 -134 29 q-67 37 -68 111q-1 68 59 110q41 29 113 29h231q-1 7 -3 25q-22 155 -200 155q-85 0 -127 -27z" />
<glyph unicode="]" horiz-adv-x="528" d="M381 640h54l-330 -640h-54zM104 576q-34 -21 -34 -60q0 -20 11 -37q21 -33 60 -33q19 0 37 11q34 21 34 60q0 18 -11 36q-21 34 -60 34q-19 0 -37 -11zM65 613q33 25 75 25q60 0 97 -47q26 -33 26 -75q0 -61 -47 -97q-34 -26 -76 -26q-61 0 -97 48q-25 33 -25 75 q0 61 47 97zM329 175q-34 -20 -34 -60q0 -20 11 -37q21 -33 59 -33q21 0 38 11q33 21 33 60q0 20 -10 36q-20 33 -60 33q-20 0 -37 -10zM290 212q33 25 75 25q60 0 97 -47q26 -33 26 -75q0 -61 -47 -97q-34 -26 -76 -26q-61 0 -97 48q-25 33 -25 75q0 61 47 97z" />
<glyph unicode="^" horiz-adv-x="333" d="M274 -34h-62q-132 143 -136 347q0 -20 1 47q6 44 20 110q25 76 74 143q16 22 47 53h57q-18 -24 -58 -87q-66 -104 -68 -260q-2 -163 125 -353z" />
<glyph unicode="_" horiz-adv-x="65" d="M-194 522q28 35 28 94q0 60 -49 95q-43 31 -106 31q-65 0 -109 -28q-52 -33 -52 -94q0 -117 144 -112q38 1 62 19q28 21 28 57q0 35 -22.5 54.5t-58.5 19.5q-65 0 -68 -55q-2 -34 27 -49q-54 10 -54 63q0 37 33 58q29 19 67 19q45 0 73 -20q32 -23 32 -67q0 -57 -36 -86z M-345 584q0 27 26 24q21 -3 19 -26q-2 -22 -21 -22q-24 0 -24 24z" />
<glyph unicode="`" horiz-adv-x="125" d="M10 238q0 -131 64 -233h65q-81 111 -73 248q6 97 44 155q25 38 73 38q16 0 44 -7q18 24 42 38q-41 24 -87 24q-90 0 -136 -92q-36 -72 -36 -171z" />
<glyph unicode="a" horiz-adv-x="65" d="M-159 605q18 -13 39 -10q42 6 38 48q-4 44 -40 41q-37 -3 -37 -30v-49zM-213 649q0 31 -32 31q-30 0 -46 -26v56q30 25 65 22q25 -2 48 -25q23 27 69 25q37 -2 59.5 -25.5t24.5 -60.5q2 -59 -44 -84q-24 -13 -52 -11q-27 2 -38 9v-113q-8 9 -26 23q-16 10 -28 14v165z " />
<glyph unicode="b" horiz-adv-x="606" d="M154 287q3 49 43 75q35 23 86 23q87 0 126 -75q15 -29 12 -70q-5 -74 -62 -114q-50 -35 -128 -36q-95 -1 -156 50q-65 54 -65 148q0 110 87 168q74 50 190 51q121 1 197 -62q81 -67 82 -186q1 -83 -43 -145q-46 -66 -125 -82q79 -13 79 -77q0 -9 -3 -20q-23 -82 -166 -87 q-83 -3 -136 31q-62 40 -62 120h57q0 -69 73 -92q35 -11 70 -9q92 5 102 49q7 53 -76 53h-112v48q117 0 192 45q91 54 92 163q1 96 -62 149q-59 50 -157 51q-87 1 -148 -38q-72 -45 -73 -127q-1 -70 48 -111q46 -39 117 -40q104 -1 127 81q-20 -35 -85 -37q-50 -1 -85 25 q-39 29 -36 78zM281 337q-27 0 -48 -14t-21 -40q0 -51 69 -53q28 -1 50 12q26 15 26 41q0 54 -76 54z" />
<glyph unicode="c" horiz-adv-x="654" d="M447 508q-42 2 -77 -22.5t-44 -64.5q-6 -27 -6 -66v-26h100q100 0 127 -77q8 -23 8 -49q0 -56 -42 -97q-64 -62 -201 -62t-201 62q-42 41 -42 97q0 87 64 115q25 11 71 11h100v26q0 153 -125 153q-128 0 -128 -114l4 -16h58q-6 11 -5 24q3 55 72 54q62 -1 66 -80h-66 q-103 0 -149 -81q-21 -37 -21 -88q0 -128 119 -182q75 -34 182 -34q109 0 184 34q119 54 119 182q0 59 -31 104t-87 60q-19 5 -52 5h-66q4 79 66 80q69 1 72 -54q1 -13 -5 -24h58q2 6 4 16q0 82 -66 105q34 26 48 43q39 48 45 103h-58q-1 -28 -37 -79q-14 -20 -58 -58z" />
<glyph unicode="d" horiz-adv-x="293" d="M195 255q0 67 -27 126q-34 75 -93 75q-54 0 -90 -24v53q36 23 95 23q86 0 134 -87q39 -71 39 -166q0 -96 -38 -167q-47 -88 -135 -88q-59 0 -95 23v53q36 -24 90 -24q59 0 93 76q27 60 27 127z" />
<glyph unicode="e" horiz-adv-x="367" d="M68 157q0 -50 28 -78t78 -28q82 0 94 79q7 47 -15 81h60q6 -9 10.5 -36t3.5 -40q-12 -137 -158 -137q-113 0 -151 100q-9 24 -9 62t10 65q40 108 150 185q26 18 46 23h-215v48h308v-45q-240 -138 -240 -279z" />
<glyph unicode="f" horiz-adv-x="536" d="M280 325q-29 0 -49 -19t-20 -48q0 -67 65 -67q29 0 47.5 17.5t18.5 46.5q0 30 -16.5 50t-45.5 20zM402 252q0 -54 -35.5 -85.5t-90.5 -31.5q-54 0 -89 33t-35 87q0 55 35.5 89.5t91.5 37.5q87 5 140 -33q81 -58 77 -164q-3 -85 -84 -142q-35 -25 -79 -36q-27 -7 -85 -8 q-52 -1 -102 23.5t-81 66.5q-55 74 -55 167q0 89 59 163q72 90 194 90q163 0 201 -117h-61q-32 60 -113 65q-32 2 -52 -1q-76 -11 -122 -64.5t-47 -131.5q-2 -95 48 -145q62 -62 139 -62q69 0 114 31q65 45 67 107q2 71 -44 117q-5 5 -17 13q17 -14 23 -40q3 -24 3 -29z" />
<glyph unicode="g" horiz-adv-x="640" d="M100 513h-61q62 146 270 146q135 0 216 -106q75 -96 75 -235q0 -145 -76 -232q-79 -92 -222 -92q-132 0 -209 66q-82 70 -82 200q0 105 62 173.5t166 68.5h73v-52h-66q-75 0 -125.5 -53t-50.5 -129q0 -104 61 -162.5t166 -58.5q112 0 179 74q65 71 65 185q0 123 -55 205 q-64 96 -181 96q-139 0 -205 -94z" />
<glyph unicode="h" horiz-adv-x="680" d="M182 496q-171 -63 -171 -266q0 -102 45 -165q51 -72 150 -67q95 5 122 70q31 -70 123 -70q116 0 165 91q24 45 24 99q0 148 -129 183q-22 6 -54 6h-84q0 80 88 80q71 0 71 -78h58q0 130 -129 130q-110 0 -141 -85q-6 -16 -6 -69v-26h125q22 0 31 -1q48 0 81 -43 q30 -39 31 -89q1 -38 -15 -74q-17 -39 -48 -56q-25 -14 -47 -14q-47 0 -82 28.5t-35 74.5v63h-54v-67q0 -46 -35 -74t-81 -24q-59 5 -89 59q-25 44 -26 108q-3 150 101 212q42 25 122 23v53q-78 0 -111 -12z" />
<glyph unicode="i" horiz-adv-x="682" d="M197 457q66 0 66 -80h-275v-48h108q-78 -41 -78 -141q0 -64 30 -113q33 -54 91 -71q28 -8 69 -6q95 5 122 70q31 -70 123 -70q116 0 165 91q24 45 24 99q0 148 -129 183q-22 6 -54 6h-62q0 77 66 80q71 3 71 -78h58q0 130 -129 130q-50 0 -83.5 -29t-39.5 -78 q-2 -17 -2 -47v-26h103q22 0 31 -1q48 0 81 -43q30 -39 31 -89q1 -38 -15 -74q-17 -39 -48 -56q-25 -14 -47 -14q-47 0 -82 28.5t-35 74.5v55h-54v-59q0 -44 -37 -72q-33 -26 -79 -26q-55 0 -84 45q-25 39 -25 97q0 64 51 101q45 33 112 33h81v27q0 42 -7 66q-25 86 -118 87 q-43 1 -64 -10q-65 -32 -65 -120h58q0 78 71 78z" />
<glyph unicode="j" horiz-adv-x="649" d="M548 308q5 121 -65 212q-75 99 -194 94q-76 -3 -114 -20q-55 -24 -90 -74h-61q62 146 261 146q149 0 237 -100q85 -95 85 -246q0 -145 -75 -230q-78 -90 -221 -89q-122 1 -201 46q-99 56 -99 168q0 97 83 140q48 25 113 25h70q-2 37 -25.5 58t-60.5 21q-87 0 -87 -79h-59 q-1 61 43 97q40 33 103 33q149 0 151 -179h-120q-64 0 -104 -27q-49 -32 -45 -93q10 -157 233 -157q114 0 177 71q60 67 65 183z" />
<glyph unicode="k" horiz-adv-x="742" d="M111 352h-57q-9 51 9 88q31 64 105 64q42 0 71 -25.5t32 -67.5q66 95 188 92q131 -4 202 -114q44 -68 41 -149q-5 -145 -129 -212q-58 -31 -153 -33v50q95 2 155 50q66 52 67 145q1 74 -40 133q-44 64 -114 75q-19 3 -34 3q-105 0 -158 -95q11 2 22 2q55 0 99 -39 q58 -51 58 -137q0 -35 -17.5 -72t-43.5 -60q-67 -57 -166 -56q-111 2 -174 63t-64 171q0 23 5 67h49q-1 -44 53 -45q71 -2 103 87q13 35 -1 72q-15 42 -52 42q-61 0 -61 -68q0 -17 5 -31zM65 219q4 -117 97 -156q34 -14 90 -16q62 -2 110.5 35t52.5 98q4 53 -25.5 91 t-82.5 38q-20 0 -26 -2q-11 -4 -27 -25q-40 -55 -89 -75q-19 -8 -47 -8q-44 0 -53 20z" />
<glyph unicode="l" horiz-adv-x="768" d="M197 346q-58 -54 -122 -124q38 -4 38 -50q0 -2 -8 -33q-4 -15 -4 -26q0 -59 63 -59q37 0 57.5 23.5t20.5 60.5v57h55v-58q0 -92 77 -85q40 4 62 45q19 35 19 79q0 71 -41.5 125.5t-109.5 70.5q-13 3 -29 3q-47 0 -78 -29zM90 365h-58q-4 16 -4 31q0 49 26.5 79t74.5 33 q96 7 111 -67q87 64 208 67q126 3 205 -73.5t75 -202.5q-3 -100 -61 -164q-61 -68 -159 -68q-13 0 -26 1v48q87 -6 140 53t47 147q-7 90 -67.5 148.5t-150.5 59.5q-89 1 -149 -37q194 -27 210 -224q6 -74 -26 -131q-36 -65 -108 -65q-95 1 -110 52q-17 -52 -116 -52 q-45 0 -76.5 29.5t-33.5 74.5q-1 12 5.5 32t6.5 29q0 15 -17 15q-11 0 -32 -21v60q36 48 88 100l80 80q11 11 11 27q0 33 -45 29q-24 -2 -39 -20.5t-15 -43.5q0 -14 5 -26z" />
<glyph unicode="m" horiz-adv-x="660" d="M312 44q-137 0 -201 62q-42 41 -42 97q0 87 64 115q25 11 71 11h100v26q0 153 -125 153q-128 0 -128 -114l4 -16h58q-6 11 -5 24q3 55 72 54q62 -1 66 -80h-66q-103 0 -149 -81q-21 -37 -21 -88q0 -128 119 -182q75 -34 182 -34q109 0 184 34q119 54 119 182 q0 59 -31 104t-87 60q-19 5 -52 5h-66q4 79 66 80q69 1 72 -54q1 -13 -5 -24h58q2 6 4 16q0 114 -128 114q-43 0 -76.5 -23t-42.5 -64q-6 -27 -6 -66v-26h100q100 0 127 -77q8 -23 8 -49q0 -56 -42 -97q-64 -62 -201 -62z" />
<glyph unicode="n" d="M328 296q21 10 28 16q14 13 14 36q0 61 -52 90q-34 19 -79 15q-74 -6 -118.5 -56t-50.5 -125q-6 -70 13 -113q31 43 88 41q37 -2 61 -31q18 -18 23 -47q-8 43 0 84q12 62 73 90zM159 144q-19 1 -32.5 -12t-14.5 -32q-1 -20 12 -33t33 -14q19 -1 32 12t14 33q1 19 -12 32 t-32 14zM414 0q-57 -2 -97 25q-43 28 -58 81q0 -22 -2 -30q-20 -76 -93 -76q-111 0 -148 173q-10 48 -5 99q13 124 105 192q58 43 121 43q69 0 101 -16q91 -45 91 -139q0 -41 -25 -70q-10 -11 -32 -22q-26 -13 -34 -19q-28 -23 -28 -79q0 -46 28 -76.5t73 -30.5q70 0 125 76 q30 42 41 120q4 29 4 59q0 122 -74 222q-66 89 -175 92q-66 2 -108 -12l-3 -1q-98 -33 -129 -101h-60q38 112 180 152q46 13 117 13q162 0 247 -142q62 -104 62 -234q0 -92 -31 -159q-46 -100 -126 -129q-27 -10 -67 -11z" />
<glyph unicode="o" horiz-adv-x="550" d="M123 86q-38 27 -48 50q-6 14 -7 53q-1 65 59 110q28 21 56 26q17 3 57 3h231q-1 7 -3 25q-22 155 -200 155q-42 0 -56 -3q-49 -11 -54 -13q-33 -14 -62 -48q-33 -38 -33 -70h60q6 45 56 67q38 17 90 17q93 0 135 -81h-161q-116 0 -155 -39q-14 -11 -39 -39 q-39 -44 -39 -110q0 -79 51 -125q38 -34 72 -47q26 -10 87 -18q-35 -13 -36 -59q-2 -67 98 -90q26 -6 83 -6q132 0 180 94q16 31 11 68h-59q4 -10 0 -30q-4 -22 -17 -33q-31 -26 -46 -33q-28 -13 -82 -15q-104 -4 -104 54q0 36 60 49q15 0 35 3q102 15 149 67q15 17 18 38 h-61q-4 -28 -72 -46q-39 -10 -107 -11q-93 -1 -147 37z" />
<glyph unicode="p" horiz-adv-x="659" d="M-15 331v48h303q-4 78 -87 80q-35 1 -59 -18.5t-29 -53.5h-59q4 57 48 91q41 32 99 32q149 0 151 -179h-85q-34 0 -77 -11q-16 -4 -44 -22q-53 -34 -56 -87q-8 -157 226 -157q116 0 179 69q59 65 65 183q6 128 -61 215q-73 96 -198 91q-75 -3 -114 -20q-55 -24 -90 -74 h-61q62 146 261 146q149 0 237 -100q85 -95 85 -246q0 -144 -76 -229q-79 -89 -222 -88q-292 3 -292 198q0 52 34 93q27 33 53 39h-131z" />
<glyph unicode="q" horiz-adv-x="71" d="M-70 170v-353h-489q-79 0 -79 85q0 48 29 71h63q-33 -30 -32 -65q2 -42 47 -42h402v226q37 33 59 78z" />
<glyph unicode="r" horiz-adv-x="588" d="M280 457q-91 1 -151 -56t-61 -147t63 -146q61 -54 152 -55q90 -1 148 55t59 146t-59 146t-151 57zM548 256q1 -117 -74.5 -186.5t-193.5 -69.5q-117 0 -192 68q-78 70 -78 186q0 69 33 123q1 2 43 55q14 18 87 61l85 50q74 43 101 119h63q-22 -94 -122 -153 q142 -17 205 -111q42 -63 43 -142z" />
<glyph unicode="s" horiz-adv-x="63" d="M-359 693q-261 0 -261 -126q0 -36 23.5 -58t60.5 -22q12 0 25 2v46q-6 -1 -12 -1q-36 0 -36 33q0 23 21 37q55 36 179 36q126 0 181 -36q21 -14 21 -37q0 -33 -36 -33q-6 0 -12 1v-46q13 -2 25 -2q37 0 60.5 22t23.5 58q0 126 -263 126z" />
<glyph unicode="t" horiz-adv-x="621" d="M185 488q140 3 144 -172h-117q-58 0 -105 -42q-32 -29 -34 -80q-2 -55 46 -94q38 -32 98 -46q25 -6 80 -3q59 3 95 20q129 60 131 241q1 125 -61 204q-26 33 -42 47q-37 -30 -82 -40q-30 -7 -93 -8q-109 -2 -134 56q-11 25 9 41q118 -44 150 -63q-14 -2 -28 -3 q-61 14 -183 55v50q132 22 238 13q185 -16 256 -197q28 -71 28 -142q0 -216 -152 -296q-28 -15 -72 -24q-29 -6 -86 -6q-40 0 -82 8q-100 19 -149 93q-26 40 -26 101q0 79 68 115h-92v47h276q0 32 -23.5 53t-56.5 22t-56.5 -18t-25.5 -51h-58q0 57 42 89q38 29 97 30z M372 591q-19 16 -97 26q-20 3 -93 0q-9 0 -14 -10q-3 -6 0 -16q6 -17 50 -25q21 -4 62 -2q68 3 92 27z" />
<glyph unicode="u" horiz-adv-x="660" d="M406 408q2 -30 -21 -47t-54 -15q-36 2 -59 23.5t-23 56.5q0 42 27.5 67t69.5 23q63 -3 98 -61q30 -49 29 -116q-1 -58 -34 -98q-48 -59 -134 -57q-67 1 -110 38q-47 39 -45 105q1 34 17 61q10 11 23 39q3 29 -29 29q-31 0 -65 -53q-27 -67 -27 -120q0 -167 143 -218 q47 -17 103 -15q39 1 50 3q94 15 154 101q42 60 42 154q0 74 -25 142q-28 78 -81 116q-62 45 -135 45q-135 0 -198 -74q-6 -7 -16 -21h-62q3 9 13 25q77 121 263 121q160 0 244 -139q55 -91 56 -204q1 -146 -80 -234t-226 -88q-77 0 -121 17q-181 70 -181 272q0 154 107 209 q25 13 61 11q31 -2 48.5 -23t16.5 -52q-1 -26 -24 -57q-16 -22 -16 -53q0 -21 9 -35q32 -49 93 -49q39 0 61 14q43 27 49 88q4 41 -11 69zM330 465q-32 -3 -28 -38q3 -32 38 -28q32 3 28 38q-3 32 -38 28z" />
<glyph unicode="v" d="M44 525q71 142 285 138q146 -3 229 -102q78 -93 80 -242q2 -131 -32 -211q-48 -114 -163 -108q-31 2 -59 9q-43 18 -56 54q-17 -43 -77 -58q-25 -6 -64 -5q-80 3 -126.5 56.5t-46.5 134.5q0 73 34 117q12 16 24 21h-82v48h286q-3 36 -25 58.5t-57 22.5q-84 0 -84 -77h-58 q0 27 8 45q22 49 67 70q25 12 71 12q136 0 139 -179h-153q-41 0 -80 -37q-30 -28 -31 -100q-2 -88 67 -126q27 -15 63 -12q42 3 69.5 26t27.5 63v75h56v-74q0 -40 36 -67q33 -26 74 -23q69 5 100 119q14 53 15 136q1 175 -110 258q-56 42 -143 46q-126 6 -201 -64 q-4 -4 -18 -24h-65z" />
<glyph unicode="w" horiz-adv-x="614" d="M116 368h-58q4 140 161 140q134 0 151 -133q0 23 7 66q20 66 113 66h71v-49q-35 9 -41 2q-4 -5 -4 -10q0 10 3 10q6 0 26 -49q29 -70 29 -86q0 -41 -28.5 -65.5t-71.5 -28.5q-21 -2 -50 0v-175q39 8 74 20q23 8 66 30v-57q-79 -37 -140 -44v-169h-54v164q-37 -4 -92 -2 q-113 4 -181 44q-87 51 -87 155q0 84 56 133q53 47 138 47h108q-4 81 -90 81q-109 0 -106 -90zM464 460q-40 -10 -40 -65v-115q91 -5 91 52q0 24 -34 72q-21 29 -17 56zM370 329h-154q-63 0 -103 -32q-44 -35 -44 -96q0 -57 34.5 -93.5t91.5 -47.5q73 -14 175 -9v278z" />
<glyph unicode="x" horiz-adv-x="439" d="M204 391q83 0 139.5 -56.5t56.5 -139.5q0 -84 -55.5 -139t-139.5 -55t-140 55.5t-56 139.5q0 83 56 139t139 56zM70 201q-3 -57 28 -94q42 -50 106 -50q58 0 96 40t38 98q0 44 -28 79q-43 53 -111 53q-55 0 -90.5 -35.5t-38.5 -90.5z" />
<glyph unicode="y" horiz-adv-x="720" d="M66 199q0 -74 57 -113q50 -35 127 -34q53 0 95 28q59 39 59 110q0 31 -16 55.5t-46 24.5q-40 0 -35 -46h-53q-1 16 -1 38q0 41 3 67q6 52 26 86q55 93 169 93t188 -105q41 -58 41 -151q0 -45 -22 -99q-23 -57 -55 -85q-78 -69 -179 -68v50q84 0 140 61q54 58 56 143 q2 87 -56 151q-45 50 -111 50q-64 0 -101.5 -38.5t-40.5 -102.5q13 10 32 10q6 0 19 -3t19 -3q17 -6 35 -22q42 -38 46 -101q5 -86 -61 -142q-61 -53 -149 -53q-82 0 -142 30q-71 36 -92 107q-11 38 -8 82q6 83 70 129q42 30 117 30q0 26 -4 38q-13 40 -52 40q-41 0 -49 -51 q-3 -21 1 -35h-57q-3 10 -1 34q2 23 5 31q26 70 104 72q60 1 90 -43q17 -25 22 -91q1 -14 0 -44h-45q-51 0 -75 -9q-34 -13 -52 -47.5t-18 -73.5z" />
<glyph unicode="z" horiz-adv-x="280" d="M156 723q-24 -48 -17 -107q6 -52 39 -92h-65q-51 54 -51 137q0 37 13 62h81z" />
<glyph unicode="{" horiz-adv-x="1072" d="M544 120q28 -72 111 -103q27 -10 87 -18q-35 -13 -36 -59q-2 -67 98 -90q26 -6 83 -6q132 0 180 94q16 31 11 68h-59q4 -10 0 -30q-4 -22 -17 -33q-31 -26 -46 -33q-28 -13 -82 -15q-104 -4 -104 54q0 36 60 49q15 0 35 3q102 15 149 67q15 17 18 38h-61q-5 -32 -78 -47 q-46 -9 -101 -10q-80 -1 -134 29q-67 37 -68 111q-1 65 59 110q28 21 56 26q17 3 57 3h231q-1 7 -3 25q-22 155 -200 155q-41 0 -56 -2q-45 -6 -75 -25q-44 27 -102 27q-138 0 -201 -113q-29 -52 -29 -132q0 -26 3 -49h55q-1 7 -1 14q0 48 46 48q33 0 52 -28q16 -24 16 -59 q0 -68 -44 -104q-40 -33 -110 -33q-81 0 -128 57q-44 53 -44 135q0 107 57 162q32 31 54 40q32 13 91 12v50h-148q-216 0 -216 -264q0 -146 64 -234h64q-70 105 -70 244q0 117 60 172q31 28 68 26l-12 -12q-70 -74 -70 -189q0 -110 59 -179q62 -74 170 -72q157 3 201 120z M544 255q-26 74 -96 75q-36 1 -62 -17q9 64 55 103.5t111 39.5q21 0 64 -14q-31 -37 -31 -68h60q6 45 56 67q38 17 90 17q93 0 135 -81h-161q-116 0 -155 -39q-49 -36 -66 -83z" />
<glyph unicode="|" horiz-adv-x="654" d="M249 483q-20 16 -59 16q-71 0 -120 -64q-40 -52 -54 -130q-6 -33 -6 -66q0 -87 40 -177q19 -43 39 -58h64q-85 75 -85 246q0 84 49 155q28 41 67 40q12 0 12 -8q-29 -32 -29 -63h60q6 45 56 67q38 17 90 17q93 0 135 -81h-161q-67 0 -107 -14q-49 -18 -87.5 -63.5 t-38.5 -110.5q0 -79 51 -125q38 -34 72 -47q26 -10 87 -18q-36 -13 -36 -59q0 -68 98 -90q27 -6 83 -6q132 0 180 94q16 31 11 68h-59q2 -6 2 -13q0 -49 -51 -75q-39 -20 -95 -22q-35 -1 -65 9q-40 14 -40 43q0 40 60 50q15 0 35 3q102 15 149 67q15 17 18 38h-61 q-5 -32 -78 -47q-46 -9 -101 -10q-80 -1 -134 29q-68 37 -68 111q0 64 56 108q39 31 126 31h221q-1 7 -3 25q-22 155 -200 155q-84 0 -123 -25z" />
<glyph unicode="}" horiz-adv-x="350" d="M35 290h255v-65h-255v65zM35 189h255v-65h-255v65z" />
<glyph unicode="~" horiz-adv-x="802" d="M190 438q-4 -6 -6 -12q-8 -16 -8 -45h58q0 77 84 77q35 0 57 -22.5t25 -58.5h-267v-48h63q-12 -5 -24 -21q-34 -44 -34 -117q0 -81 46.5 -134.5t126.5 -56.5q39 -1 64 5q60 15 77 58q13 -36 56 -54q16 -7 59 -9q115 -6 163 108q34 80 32 211q-2 149 -80 242 q-83 99 -229 102q-186 3 -267 -108q-3 -3 -18 -30h65q56 96 219 88q87 -4 143 -46q111 -83 110 -258q-1 -83 -15 -136q-31 -114 -100 -119q-41 -3 -74 23q-36 27 -36 67v74h-56v-75q0 -40 -27.5 -63t-69.5 -26q-36 -3 -63 12q-69 38 -67 126q1 72 31 100q39 37 80 37h153 q-3 179 -139 179q-45 0 -71 -12q-3 -1 -17 -9q-29 13 -53 13q-73 1 -119 -64q-38 -54 -48 -134q-3 -24 -3 -55q0 -89 33 -184q7 -19 30 -58h65q-81 111 -73 248q6 97 44 155q25 38 65 37q11 0 15 -7z" />
<glyph horiz-adv-x="420" />
<glyph unicode="&#xa1;" horiz-adv-x="181" d="M82 49q29 0 29 -29t-29 -29t-29 29t29 29z" />
<glyph unicode="&#xa2;" horiz-adv-x="644" d="M238 485q45 23 121 23q81 0 129 -30q45 14 46 58q2 90 -181 90q-53 0 -102 -15q-68 -21 -70 -61q-2 -45 57 -65zM157 374q0 32 33 70q-2 2 -14 2q-54 2 -85 -73q-21 -51 -25 -120q-8 -137 73 -248h-65q-11 17 -30 58q-33 96 -33 184q0 82 27 147q34 82 101 100 q-16 22 -16 52q0 81 105 113q59 18 133 18q229 0 229 -144q0 -66 -63 -92q24 -32 35 -88q2 -10 3 -25h-231q-40 0 -57 -3q-28 -5 -56 -26q-60 -45 -59 -110q1 -74 68 -111q54 -30 134 -29q55 1 101 10q73 15 78 47h61q-3 -21 -18 -38q-47 -53 -149 -67q-4 0 -35 -3 q-60 -13 -60 -49q0 -57 104 -54q53 2 82 15q15 7 46 33q13 11 17 33q4 20 0 30h59q1 -10 1 -19q0 -67 -65 -108q-56 -35 -127 -35q-57 0 -83 6q-100 23 -98 90q1 46 36 59q-61 8 -87 18q-34 13 -72 47q-51 46 -51 125q0 104 108 167q36 21 125 21h161q-30 81 -135 81 q-112 0 -142 -70q-2 -5 -4 -14h-60z" />
<glyph unicode="&#xa3;" horiz-adv-x="644" d="M244 485q45 23 121 23q19 0 28 -1q-24 27 -22 62q2 41 36 54q-15 3 -48 3q-53 0 -102 -15q-68 -21 -70 -61q-2 -45 57 -65zM508 601q-13 5 -26 5q-21 0 -37.5 -12.5t-16.5 -33.5q0 -24 21 -38t46 -14q48 0 48 43q0 36 -35 50zM367 677q233 0 233 -132q0 -33 -23 -57 t-56 -30q34 -39 47 -105q2 -10 3 -25h-231q-40 0 -57 -3q-28 -5 -56 -26q-60 -45 -59 -110q1 -74 68 -111q54 -30 134 -29q55 1 101 10q73 15 78 47h61q-3 -21 -18 -38q-47 -53 -149 -67q-4 0 -35 -3q-60 -13 -60 -49q0 -57 104 -54q53 2 82 15q15 7 46 33q13 11 17 33 q4 20 0 30h59q1 -10 1 -19q0 -67 -65 -108q-56 -35 -127 -35q-57 0 -83 6q-100 23 -98 90q1 46 36 59q-61 8 -87 18q-34 13 -72 47q-51 46 -51 125q0 104 108 167q36 21 125 21h161q-30 81 -135 81q-112 0 -142 -70q-2 -5 -4 -14h-60q0 30 29 65q-1 8 -17 8q-40 -1 -65 -39 q-38 -58 -44 -155q-8 -137 73 -248h-65q-11 17 -30 58q-33 95 -33 184q0 82 29 149q36 84 106 99q-17 22 -17 52q0 73 88 106q64 24 150 24z" />
<glyph unicode="&#xa4;" horiz-adv-x="256" d="M23 10h205v-23h-205v23z" />
<glyph unicode="&#xa5;" horiz-adv-x="546" d="M164 6q36 -9 105 -11q128 -3 180 36v-145q-9 23 -47 35q-30 10 -61 10q-57 0 -135 -38q-64 -31 -90 -31q-44 0 -40 38t41 38q9 0 20 -3v50q-14 3 -28 3q-42 0 -66.5 -24.5t-24.5 -66.5q0 -34 15 -54q27 -36 76 -36q39 0 107 30q91 40 121 40q34 0 66 -17q36 -19 47 -48 h56v292h-53q-19 -28 -76 -46q-32 -10 -107 -11q-82 -1 -135 29q-65 37 -67 113q-2 67 59 110q41 29 113 29h231q-1 7 -3 25q-22 155 -200 155q-56 0 -90 -10q-50 -15 -86 -59q-29 -35 -29 -65h60q1 5 4 14q31 70 142 70q52 0 82 -17.5t53 -63.5h-161q-135 0 -194 -77 q-38 -49 -39 -111q-1 -70 43 -119q41 -46 111 -64z" />
<glyph unicode="&#xa6;" horiz-adv-x="270" d="M93 94h81q13 -25 13 -62q0 -83 -51 -137h-65q33 40 39 92q7 59 -17 107zM109 280q13 7 26 7q22 0 37.5 -15.5t15.5 -37.5t-15 -37t-37 -15q-23 0 -38.5 14t-15.5 37q0 32 27 47z" />
<glyph unicode="&#xa7;" horiz-adv-x="550" d="M123 86q37 -26 70 -33q24 -5 77 -4q171 3 179 57h61q-3 -21 -18 -38q-47 -53 -149 -67q-4 0 -35 -3q-60 -13 -60 -49q0 -57 104 -54q53 2 82 15q15 7 46 33q13 11 17 33q4 20 0 30h59q1 -10 1 -19q0 -67 -65 -108q-56 -35 -127 -35q-57 0 -83 6q-100 23 -98 90 q1 46 36 59q-61 8 -87 18q-34 13 -72 47q-51 46 -51 125q0 104 108 167q36 21 125 21h161q-30 81 -135 81q-112 0 -142 -70q-2 -5 -4 -14h-60q0 37 39 76q-73 30 -73 97q0 80 105 112q59 18 133 18q233 0 233 -132q0 -33 -23 -57t-56 -30q34 -39 47 -105q2 -10 3 -25h-231 q-40 0 -57 -3q-28 -5 -56 -26q-60 -45 -59 -110t55 -103zM144 485q45 23 121 23q19 0 28 -1q-24 27 -22 62q2 41 36 54q-15 3 -48 3q-53 0 -102 -15q-68 -21 -70 -61q-2 -45 57 -65zM408 601q-13 5 -26 5q-21 0 -37.5 -12.5t-16.5 -33.5q0 -24 21 -38t46 -14q48 0 48 43 q0 36 -35 50z" />
<glyph unicode="&#xa8;" horiz-adv-x="661" d="M149 -23q67 -38 163 -38q121 0 231 63v-132h-376q-69 0 -69 34q0 33 28 61h-64q-24 -22 -24 -62q0 -84 86 -84h477v255h-54q-91 -82 -220 -82q-147 0 -214 92q-42 57 -42 134q0 110 63 167q79 72 193 72q170 0 218 -113q17 -41 16 -72q-3 -65 -42.5 -107t-103.5 -43 q-67 -2 -109 33q-28 23 -28 68q0 51 36 78q33 25 85 25h32v49h-230v-49h67q-51 -28 -52 -97q-2 -82 58 -124q51 -36 137 -36q94 0 151.5 56.5t58.5 150.5q1 112 -93 176q-82 56 -199 56q-135 0 -224 -72q-97 -78 -95 -210q3 -172 139 -249z" />
<glyph unicode="&#xa9;" horiz-adv-x="655" d="M182 496q-171 -63 -171 -266q0 -102 45 -165q51 -72 150 -67q95 5 122 70q31 -70 123 -70q116 0 165 91q24 45 24 99q0 148 -129 183q-22 6 -54 6h-84q0 80 88 80q71 0 71 -78h58q0 130 -129 130q-110 0 -141 -85q-6 -16 -6 -69v-26h125q22 0 31 -1q48 0 81 -43 q30 -39 31 -89q1 -38 -15 -74q-17 -39 -48 -56q-25 -14 -47 -14q-47 0 -82 28.5t-35 74.5v63h-54v-67q0 -46 -35 -74t-81 -24q-59 5 -89 59q-25 44 -26 108q-3 150 101 212q42 25 122 23v53q-78 0 -111 -12zM476 522q28 35 28 94q0 60 -49 95q-43 31 -106 31q-65 0 -109 -28 q-52 -33 -52 -94q0 -117 144 -112q38 1 62 19q28 21 28 57q0 35 -22.5 54.5t-58.5 19.5q-65 0 -68 -55q-2 -34 27 -49q-54 10 -54 63q0 37 33 58q29 19 67 19q45 0 73 -20q32 -23 32 -67q0 -57 -36 -86zM325 584q0 27 26 24q21 -3 19 -26q-2 -22 -21 -22q-24 0 -24 24z" />
<glyph unicode="&#xaa;" horiz-adv-x="646" d="M549 33v-147q-9 23 -47 35q-30 10 -61 10q-57 0 -135 -38q-64 -31 -90 -31q-44 0 -40 38t41 38q9 0 20 -3v50q-14 3 -28 3q-42 0 -66.5 -24.5t-24.5 -66.5q0 -34 15 -54q27 -36 76 -36q39 0 107 30q91 40 121 40q34 0 66 -17q36 -19 47 -48h56v294h-53q-22 -29 -76 -46 q-32 -10 -107 -11q-80 -1 -134 29q-67 37 -68 111q-1 65 59 110q28 21 56 26q17 3 57 3h231q-1 7 -3 25q-22 155 -200 155q-83 0 -128 -27q-18 18 -59 19q-73 1 -119 -65q-38 -54 -48 -133q-3 -24 -3 -55q0 -89 33 -184q7 -19 30 -58h65q-81 111 -73 248q6 97 44 155 q25 38 65 37q11 0 17 -6q-29 -35 -29 -65h60q1 5 4 14q31 70 142 70q52 0 82 -17.5t53 -63.5h-161q-116 0 -155 -39q-14 -11 -39 -39q-39 -44 -39 -110q0 -69 44 -118q41 -45 110 -63q36 -9 105 -11q128 -3 180 36z" />
<glyph unicode="&#xab;" horiz-adv-x="578" d="M74 447l40 41l161 -165l163 161l40 -38l-164 -167l170 -167l-42 -41l-168 169l-172 -170l-38 39l174 177z" />
<glyph unicode="&#xac;" horiz-adv-x="488" d="M54 272h151v150h59v-150h152v-50h-152v-146h-59v146h-151v50z" />
<glyph unicode="&#xad;" horiz-adv-x="350" d="M35 280h255v-51h-255v51z" />
<glyph unicode="&#xae;" horiz-adv-x="1112" />
<glyph unicode="&#xaf;" horiz-adv-x="1112" />
<glyph unicode="&#xb0;" horiz-adv-x="1112" />
<glyph unicode="&#xb1;" horiz-adv-x="877" d="M577 161q0 -51 28.5 -80.5t78.5 -29.5q82 0 94 79q7 47 -15 81h60q6 -9 10.5 -36t3.5 -40q-12 -137 -158 -137q-113 0 -151 100q-17 44 -6 112q12 77 83 157q31 35 74 65q26 18 46 23h-215v48h308v-45q-111 -64 -163 -118q-78 -81 -78 -179zM61 64q38 -34 72 -47 q26 -10 87 -18q-35 -13 -36 -59q-2 -67 98 -90q26 -6 83 -6q132 0 180 94q16 31 11 68h-59q4 -10 0 -30q-4 -22 -17 -33q-31 -26 -46 -33q-28 -13 -82 -15q-104 -4 -104 54q0 36 60 49q15 0 35 3q102 15 149 67q15 17 18 38h-61q-5 -32 -78 -47q-46 -9 -101 -10 q-80 -1 -134 29q-67 37 -68 111q-1 68 59 110q41 29 113 29h231q-1 7 -3 25q-22 155 -200 155q-56 0 -90 -10q-50 -15 -86 -59q-29 -35 -29 -65h60q1 5 4 14q31 70 142 70q52 0 82 -17.5t53 -63.5h-161q-135 0 -194 -77q-39 -51 -39 -111q0 -79 51 -125z" />
<glyph unicode="&#xb2;" horiz-adv-x="482" d="M220 428q93 0 152.5 -58.5t59.5 -151.5t-58.5 -152.5t-151.5 -59.5t-152.5 58.5t-59.5 151.5t58.5 152.5t151.5 59.5z" />
<glyph unicode="&#xb3;" horiz-adv-x="584" d="M11 310l161 -119l-63 -188l163 115l164 -115l-65 188l163 119h-201l-61 188l-63 -188h-198z" />
<glyph unicode="&#xb4;" horiz-adv-x="666" d="M348 462q-36 -2 -36 -33q0 -15 13 -24t28 -8q35 2 36 30q1 16 -12 26t-29 9zM567 307q0 123 -67 190q-56 56 -202 58q-150 2 -259 -51v55q43 9 43 27q0 6 -7 10q-21 13 -21 37t30 43q61 38 222 38q285 0 285 -118q0 -50 -40 -69q73 -79 75 -208q3 -210 -85 -285 q-42 -36 -97 -36q-105 0 -130 81q-22 -81 -112 -79q-99 2 -150 90q-42 72 -42 178q0 92 33 159q43 87 126 83q71 -3 71 -69q0 -11 -5 -35.5t-4 -37.5q6 -65 88 -65q31 0 53.5 17t26.5 47q-23 -18 -57 -18q-37 0 -61 20t-24 56q0 84 96 84q48 0 76 -40q25 -36 25 -86 q0 -64 -39 -97t-104 -33q-132 0 -139 119q-1 11 5 34t5 33q-2 21 -26 19q-34 -3 -54 -40q-33 -60 -33 -161q0 -70 33 -131q40 -73 104 -73q36 0 57 35q19 30 19 68v48h55v-46q0 -43 28 -74.5t70 -31.5q132 0 132 255zM132 590q75 16 167 16q72 0 112 -6q54 -8 94 -33 q12 3 19.5 13.5t5.5 21.5q-12 60 -219 60q-140 0 -182 -24q-9 -5 -10 -11q-2 -7 14 -20q3 -3 3 -7t-4 -10z" />
<glyph unicode="&#xb5;" horiz-adv-x="290" d="M258 50v-52h-231v52h84v404h-84v47h142v-451h89zM141 635q35 0 35 -35t-35 -35t-35 35t35 35z" />
<glyph unicode="&#xb6;" horiz-adv-x="516" d="M492 498v-44l-59 -1l-146 -450h-62l-146 451h-58v44h215v-44h-96l118 -381l116 381h-95v44h213z" />
<glyph unicode="&#xb7;" horiz-adv-x="561" d="M534 50v-52h-236v52h108l-128 155l-130 -155h105v-52h-230v52h53l165 202l-165 197h-53v49h230v-49h-104l128 -157l130 158l-109 -1v49h236v-49h-55l-163 -197l163 -202h55z" />
<glyph unicode="&#xb8;" horiz-adv-x="290" d="M259 48v-49h-231v49h84v623h-84v47h231v-47h-89v-623h89z" />
<glyph unicode="&#xb9;" horiz-adv-x="480" d="M475 719v-47h-59l-150 -673h-76l-128 673h-58v47h215v-47h-96l108 -603l124 603h-93v47h213z" />
<glyph unicode="&#xba;" horiz-adv-x="538" d="M523 48v-49h-248v49h122l-132 265l-136 -265h103v-49h-220v49h53l169 330l-153 293h-59v46h224v-46h-96l118 -235l122 235h-103v46h230v-46h-61l-157 -297l163 -326h61z" />
<glyph unicode="&#xbb;" horiz-adv-x="1000" d="M400 270q-2 8 -2 9q0 29 24 29t24 -34v-40l90 -4q46 28 68 74q13 27 16 44h192q37 0 46 26l2 12q0 17 -12.5 31.5t-29.5 14.5h-242q-11 0 -34 14q-11 5 -22 20h292q33 0 58.5 -22t25.5 -54q0 -29 -17 -51t-45 -27h-192l14 -30q26 -10 30 -36q0 -27 -8 -40q8 -21 8 -38 q0 -16 -8 -34l-38 -18q3 -10 3 -20q0 -60 -75 -60q-43 -18 -84 -18q-39 0 -84 16q-46 73 -128 73q-17 0 -22 -1l-8 -32l-199 1v350h225q78 42 132 43l72 2q51 -10 88 -49t44 -91q-5 -29 -27 -47.5t-52 -18.5q-27 0 -52 15t-33 39l22 40q0 -22 17.5 -39.5t39.5 -17.5 q35 0 35 55q-33 53 -90 70q-24 7 -46 7q-23 0 -50 -9l-118 -72v-198q120 0 172 -82q28 -19 59 -19q55 0 85 41l-70 18l-8 34l-32 4l-2 34l-38 4l-12 38zM624 274q-21 -48 -70 -68q-22 -9 -43 -9q-11 0 -33 5q9 -34 37.5 -56.5t63.5 -22.5q14 0 27 3q24 3 42 22q3 3 3 6 q0 13 -47 13q-64 0 -64 -17q0 -3 4 -6l-6 48q5 -20 31 -20q27 0 60 18q39 20 39 44q0 8 -4 12q-15 22 -40 28zM166 110v282h42v-282h-42z" />
<glyph unicode="&#xbc;" horiz-adv-x="347" d="M64 5h-53v331q0 65 42.5 105t107.5 40q70 0 111 -35q45 -38 46 -106q1 -65 -38.5 -98t-105.5 -29q-23 1 -49 12q-29 12 -40 28v59q15 -19 44 -33t54 -14q34 0 57.5 22.5t23.5 56.5q0 37 -29.5 62.5t-67.5 25.5q-42 0 -72.5 -27.5t-30.5 -69.5v-330z" />
<glyph unicode="&#xbd;" horiz-adv-x="333" d="M16 163h49q-2 -13 -2 -25q0 -91 101 -88q80 3 81 54q1 27 -25 42q-11 7 -70 26q-93 31 -117 85q-17 39 -17 83q0 33 11 60q37 89 156 81q49 -3 83.5 -35.5t34.5 -80.5q0 -51 -37 -80q-33 -26 -86 -26q-58 0 -99 32q10 -46 97 -75q66 -22 70 -24q53 -26 56 -71 q8 -121 -141 -121q-148 0 -148 125q0 18 3 38zM79 380q-6 -33 25 -54q27 -19 61 -19q77 0 83 55q3 29 -20.5 51t-52.5 22q-38 0 -55 -6q-34 -12 -41 -49z" />
<glyph unicode="&#xbe;" horiz-adv-x="588" d="M280 457q-91 1 -151 -56t-61 -147t63 -146q61 -54 152 -55q90 -1 148 55t59 146t-59 146t-151 57zM548 256q1 -117 -74.5 -186.5t-193.5 -69.5q-117 0 -192 68q-78 70 -78 186q0 69 33 123q1 2 43 55q14 18 87 61l85 50q74 43 101 119h63q-22 -94 -122 -153 q142 -17 205 -111q42 -63 43 -142zM88 558q18 -13 39 -10q38 6 38 43q0 18 -11 30t-29 11q-13 -1 -25 -9.5t-12 -20.5v-44zM34 597q0 31 -32 31q-30 0 -46 -26v56q30 25 65 22q25 -2 48 -25q23 27 69 25q78 -4 84 -85q3 -41 -26 -67.5t-70 -23.5q-27 2 -38 9v-81 q-27 -24 -54 -69v234z" />
<glyph unicode="&#xbf;" horiz-adv-x="745" d="M390 598q-3 -11 -3 -21q0 -47 53 -63q20 -6 39 -6q44 0 67 22q-54 48 -156 68zM182 447q-5 7 -26 -2q-31 -13 -46 -37q-38 -61 -44 -155q-8 -137 73 -248h-65q-11 17 -30 58q-33 96 -33 184q0 96 37 166q47 88 133 87q48 -1 61 -26q21 2 29 2q61 -1 91 -45 q22 -33 24 -124h-75q-129 0 -129 -108q0 -77 71 -116q57 -32 140 -32q116 0 184 62.5t68 177.5q0 116 -60 198q-37 -31 -106 -31q-64 0 -104 27q-47 31 -47 92q0 14 3 28q-48 5 -60 4v50q87 -2 132 -9q141 -22 220 -116.5t82 -238.5q1 -61 -21 -120q-23 -62 -66 -102 q-79 -74 -224 -74q-114 0 -186 45q-86 53 -86 161q0 67 51 110q48 41 117 41h36q0 70 -58 69q-67 -2 -65 -73h-56q-3 62 35 95z" />
<glyph unicode="&#xc0;" horiz-adv-x="670" d="M247 458v-52q-50 0 -67 -4q-30 -7 -55 -30q-57 -53 -57 -150q0 -65 29 -112q34 -56 95 -56q46 0 73 35q24 31 24 79v63h60v-61q0 -50 23 -81q26 -36 74 -36q65 0 100 78q27 60 25 137q-3 123 -66 221q-33 -31 -108 -31q-65 0 -104 27q-46 32 -46 94q0 13 3 26 q-11 1 -59 5v49q136 -3 219 -35q108 -42 165 -143q51 -90 55 -206q4 -109 -35 -183q-48 -92 -150 -92q-51 0 -77 13q-31 16 -49 60q-35 -73 -127 -74q-90 -1 -137 66q-40 56 -45 151q-6 127 82 199q57 46 155 43zM310 598q-3 -11 -3 -22q0 -34 30 -52q25 -15 61 -15 q42 0 68 19q-26 24 -69 44q-25 11 -87 26zM249 569q0 -21 11 -46q-10 -3 -47 -5q-58 -3 -97 20q-44 26 -49 81q-5 60 44 97q40 31 105 41q52 8 106 8q251 0 254 -132q1 -55 -49 -87q-10 9 -21 20l-20 16q32 19 32 45q0 85 -196 87q-65 1 -115 -12q-79 -20 -80 -68 q-1 -64 93 -67q23 -1 29 2z" />
<glyph unicode="&#xc1;" horiz-adv-x="670" d="M191 659q119 -2 190 -24q0 56 28 72q-33 7 -85 7q-194 0 -195 -80q-1 -64 93 -67q2 0 27 1q1 -25 12 -45q-25 -4 -46 -5q-58 -3 -97 20q-44 26 -49 81q-5 60 44 97q40 31 105 41q52 8 106 8q257 0 254 -132q-1 -49 -61 -75q106 -103 113 -283q4 -109 -35 -183 q-48 -92 -150 -92q-51 0 -77 13q-31 16 -49 60q-35 -73 -127 -74q-89 -1 -136 66q-41 57 -46 151q-7 127 82 199q57 46 155 43v-52q-50 0 -67 -4q-30 -7 -55 -30q-57 -53 -57 -150q0 -65 29 -112q34 -56 95 -56q46 0 73 35q24 31 24 79v63h60v-61q0 -50 23 -81 q26 -36 74 -36q65 0 100 78q27 60 25 137q-3 123 -66 221q-33 -31 -107 -31q-151 0 -151 121q0 13 3 26q-11 1 -59 5v49zM310 598q-3 -11 -3 -22q0 -34 30 -52q25 -15 61 -15q42 0 68 19q-26 24 -69 44q-25 11 -87 26zM438 644q0 -17 11.5 -28.5t28.5 -11.5t29 11.5t12 28.5 t-12 28.5t-29 11.5t-28.5 -11.5t-11.5 -28.5z" />
<glyph unicode="&#xc2;" horiz-adv-x="653" d="M398 376q2 12 9 38q6 13 17 41q-50 -11 -54 -79h28zM480 453q-17 -26 -30 -76q54 0 85 -24q5 83 -55 100zM445 329q-5 -58 26 -65q28 -7 50 35q-30 30 -76 30zM107 494q-38 18 -38 63q0 104 214 105q38 0 95 -7q110 -14 110 -85q0 -27 -19 -51q29 26 55 61q40 54 42 85 h58q-7 -50 -58 -115q-22 -28 -54 -50q10 -4 28 -14q34 -29 46 -79q4 -17 2 -47t-9 -46q8 -9 13 -20q20 -42 21 -78q1 -37 -10 -73q-47 -152 -293 -152q-242 0 -290 151q-10 32 -10 67q0 59 30.5 103t86.5 59q19 5 52 5h59q-4 79 -59 80q-69 1 -72 -54q-1 -13 5 -24h-58 q-5 13 -5 31q0 43 35 71q12 10 23 14zM131 553q0 -35 50 -45q90 -2 109 -87q6 -27 6 -66v-26h-89q-51 0 -70 -7q-40 -15 -60 -67q-10 -25 -8 -52q11 -159 242 -159q137 0 201 62q42 41 42 99q0 22 -6 45q-29 -34 -72 -34q-46 0 -67 35q-18 30 -15 78h-82v26q0 45 7 67 q23 73 90 82q-17 -3 -32 -3q-36 0 -64 17q-33 19 -37 52q-3 21 8 41q-153 0 -153 -58zM334 581q0 -18 20 -28q17 -9 36 -9q40 0 41 26q2 38 -57 38q-40 0 -40 -27z" />
<glyph unicode="&#xc3;" horiz-adv-x="500" d="M230 439l-218 -438h438z" />
<glyph unicode="&#xc4;" horiz-adv-x="679" d="M80 163q29 38 80 37q74 -2 89 -74q1 56 24 96l53 66q30 38 31 74q1 47 -29.5 70t-78.5 22q-103 -2 -158 -108q-22 -42 -22 -110q0 -45 11 -73zM108 99q0 -19 13 -32t32 -13t32.5 12.5t13.5 31.5t-13.5 32.5t-32.5 13.5t-32 -13t-13 -32zM448 0q-36 0 -58 15q-9 6 -28 30 q-13 16 -26 18q-25 3 -25 -25q0 -21 7 -34h-54q-15 32 -15 66q-1 -30 -32 -51q-27 -19 -59 -19q-75 0 -114 80q-29 58 -34 145q-8 134 86 222q64 60 158 60q69 0 114 -36q49 -39 48 -107q-1 -63 -47 -113q-22 -24 -34 -40q-30 -40 -30 -99q15 15 39 14q5 0 52 -35t59 -33 q62 8 97 99q28 73 28 150q0 123 -67 190q-56 56 -207 58q-157 2 -267 -51v55q76 18 76 37q0 3 -4 6q-21 13 -21 37q0 75 224 75q284 0 284 -122q0 -46 -34 -65q71 -77 75 -208q3 -112 -41 -206q-53 -113 -150 -113zM168 596q60 10 139 10q74 0 115 -6q55 -8 96 -33 q25 7 20 33q-13 62 -219 62q-159 0 -164 -29q-2 -7 14 -20q3 -3 3 -7t-4 -10z" />
<glyph unicode="&#xc5;" horiz-adv-x="679" d="M249 70q-1 -30 -32 -51q-27 -19 -59 -19q-75 0 -114 80q-29 58 -34 145q-8 134 86 222q64 60 158 60q69 0 114 -36q49 -39 48 -107q-1 -63 -47 -113q-22 -24 -34 -40q-30 -40 -30 -99q15 15 39 14q4 0 51.5 -35t59.5 -33q64 8 98 100q26 71 27 149q1 111 -68 180 q-44 44 -122 44h-263q-87 0 -87 73q0 110 272 110q287 0 287 -122q0 -53 -35 -73q71 -77 75 -207q3 -108 -41 -200q-54 -112 -150 -112q-36 0 -58 15q-9 6 -28 30q-13 16 -26 18q-25 3 -25 -25q0 -21 7 -34h-54q-15 32 -15 66zM80 163q29 38 80 37q74 -2 89 -74q1 56 24 96 l53 66q30 38 31 74q1 47 -29.5 70t-78.5 22q-103 -2 -158 -108q-22 -42 -22 -110q0 -45 11 -73zM108 99q0 -19 13 -32t32 -13t32.5 12.5t13.5 31.5t-13.5 32.5t-32.5 13.5t-32 -13t-13 -32zM397 583q80 0 118 -28q29 16 24 45q-11 62 -222 62q-144 0 -188 -23 q-29 -15 -27 -32q2 -24 51 -24h244z" />
<glyph unicode="&#xc6;" horiz-adv-x="661" d="M149 -23q67 -38 163 -38q124 0 231 69v-138q-48 40 -134 40q-19 0 -58 -4q-30 -3 -148 -47q-30 -11 -59 -11q-50 0 -50 32q0 33 39 33q6 0 13 -2v44q-17 3 -31 3q-58 0 -77 -49q-6 -15 -6 -31q0 -83 102 -83q47 0 126 27q100 34 142 34q98 0 144 -49h55v267h-55 q-65 -46 -102 -61q-51 -21 -117 -21q-147 0 -214 92q-42 57 -42 134q0 110 63 167q79 72 193 72q170 0 218 -113q17 -41 16 -72q-3 -65 -42.5 -107t-103.5 -43q-67 -2 -109 33q-28 23 -28 68q0 51 36 78q33 25 85 25h32v49h-230v-49h67q-51 -28 -52 -97q-2 -82 58 -124 q51 -36 137 -36q94 0 151.5 56.5t58.5 150.5q1 112 -93 176q-82 56 -199 56q-135 0 -224 -72q-97 -78 -95 -210q3 -172 139 -249z" />
<glyph unicode="&#xc7;" horiz-adv-x="679" d="M249 70q-1 -30 -32 -51q-27 -19 -59 -19q-75 0 -114 80q-29 58 -34 145q-8 134 86 222q64 60 158 60q69 0 114 -36q49 -39 48 -107q-1 -63 -47 -113q-22 -24 -34 -40q-30 -40 -30 -99q15 15 39 14q4 0 51.5 -35t59.5 -33q64 8 98 100q26 71 27 149q1 111 -68 180 q-44 44 -122 44h-263q-87 0 -87 73q0 110 272 110q116 0 163 -9q110 -21 115 -87q4 -59 -51 -77q96 -77 100 -229q3 -109 -41 -200q-54 -112 -150 -112q-36 0 -58 15q-9 6 -28 30q-13 16 -26 18q-25 3 -25 -25q0 -21 7 -34h-54q-15 32 -15 66zM80 163q29 38 80 37 q74 -2 89 -74q1 56 24 96l53 66q30 38 31 74q1 47 -29.5 70t-78.5 22q-103 -2 -158 -108q-22 -42 -22 -110q0 -45 11 -73zM108 99q0 -19 13 -32t32 -13t32.5 12.5t13.5 31.5t-13.5 32.5t-32.5 13.5t-32 -13t-13 -32zM391 583q-12 11 -14 37q-2 27 14 40q-18 2 -74 2 q-144 0 -188 -23q-29 -15 -27 -32q2 -24 51 -24h238zM478 648q-36 0 -41 -27q-3 -19 13.5 -31.5t36.5 -12.5q33 0 39 25q5 20 -11 33t-37 13z" />
<glyph unicode="&#xc8;" horiz-adv-x="550" d="M123 86q37 -26 70 -33q24 -5 77 -4q171 3 179 57h61q-3 -21 -18 -38q-47 -53 -149 -67q-4 0 -35 -3q-60 -13 -60 -49q0 -57 104 -54q53 2 82 15q15 7 46 33q13 11 17 33q4 20 0 30h59q1 -10 1 -19q0 -67 -65 -108q-56 -35 -127 -35q-57 0 -83 6q-100 23 -98 90 q1 46 36 59q-61 8 -87 18q-34 13 -72 47q-51 46 -51 125q0 104 108 167q36 21 125 21h161q-30 81 -135 81q-112 0 -142 -70q-2 -5 -4 -14h-60q0 37 39 76q-73 30 -73 97q0 80 105 112q59 18 133 18q229 0 229 -144q0 -66 -63 -92q24 -32 35 -88q2 -10 3 -25h-231 q-40 0 -57 -3q-28 -5 -56 -26q-60 -45 -59 -110t55 -103zM144 485q45 23 121 23q81 0 129 -30q45 14 46 58q2 90 -181 90q-53 0 -102 -15q-68 -21 -70 -61q-2 -45 57 -65z" />
<glyph unicode="&#xc9;" horiz-adv-x="659" d="M560 308q3 118 -71 184q-69 62 -189 63q-152 2 -251 -51v55q17 3 40 13q29 13 29 24q0 3 -3 5q-21 13 -21 37q0 46 91 65q53 11 123 11q277 0 277 -122q0 -49 -39 -73q73 -79 73 -201q0 -144 -76 -229q-79 -89 -222 -88q-299 3 -299 200q0 42 24.5 80.5t63.5 49.5h-125 v48h303q-4 78 -87 80q-35 1 -59 -18.5t-29 -53.5h-59q4 57 48 91q41 32 99 32q149 0 151 -179h-89q-41 0 -77 -11q-16 -5 -44 -22q-57 -35 -59 -87q-4 -87 77 -127q60 -30 156 -30q112 0 178 72q63 68 66 182zM172 595q62 11 129 11q123 0 199 -47q25 5 25 30q0 73 -212 73 q-149 0 -154 -30q-2 -7 14 -20q3 -3 3 -7t-4 -10z" />
<glyph unicode="&#xca;" horiz-adv-x="654" d="M374 599q18 -13 39 -10q38 6 38 39q0 18 -11 30t-29 11q-13 -1 -25 -9.5t-12 -20.5v-40zM374 488q29 22 73 20q107 94 111 171h59q-3 -63 -60 -134q-17 -21 -50 -46q66 -23 66 -105l-4 -16h-58q6 11 5 24q-3 55 -72 54q-62 -1 -66 -80h66q104 0 150 -83q20 -36 20 -86 q0 -128 -119 -182q-75 -34 -184 -34q-107 0 -182 34q-119 54 -119 182q0 59 31 104t87 60q19 5 52 5h66q-4 79 -66 80q-69 1 -72 -54q-1 -13 5 -24h-58q-1 6 -4 16q0 114 128 114q43 0 76.5 -23t42.5 -64q6 -27 6 -66v-26h-100q-100 0 -127 -77q-8 -23 -8 -49q0 -56 42 -97 q64 -62 201 -62t201 62q42 41 42 97q0 87 -64 115q-25 11 -71 11h-100v305q0 31 -32 31q-30 0 -46 -26v56q30 25 65 22q25 -2 48 -25q23 27 69 25q78 -4 84 -86q4 -49 -44 -75q-24 -13 -52 -11q-27 2 -38 9v-66z" />
<glyph unicode="&#xcb;" horiz-adv-x="1166" d="M75 222q38 -4 38 -50q0 -2 -8 -33q-4 -15 -4 -26q0 -59 63 -59q43 0 63 32q18 28 15 72h55q-1 -49 13 -75q19 -35 64 -31q40 4 62 45q19 35 19 79q0 71 -41.5 125.5t-109.5 70.5q-9 2 -24 2q-51 0 -81 -27q-52 -47 -124 -125zM1016 369q12 15 12 34q-1 55 -72 54 q-62 -1 -66 -80h66q30 0 52 -5q5 0 8 -3zM824 237q-95 0 -95 -33q0 -40 96 -40q95 0 95 38q0 24 -30 31q-17 4 -66 4zM691 509q43 0 76.5 -23t42.5 -64q6 -27 6 -66v-26h-100q-100 0 -127 -77q-8 -23 -8 -49q0 -56 42 -97q64 -62 201 -62t201 62q42 41 42 97t-33 93 q-14 -23 -76 -49q18 -21 18 -51q0 -44 -57 -65q-40 -15 -94 -15q-152 0 -152 90q0 50 50 67q27 9 91 9q89 0 114 7q46 13 58 35q-18 5 -54 5h-100v26q0 153 125 153q128 0 128 -114q0 -34 -20 -52q60 -45 60 -135q0 -128 -118 -182q-75 -34 -184 -34q-107 0 -182 34 q-119 54 -119 182q0 59 31 104t87 60q19 5 52 5h66q-4 78 -66 80q-43 1 -61 -24q-10 -19 -10 -54h-58q-1 28 4 47q-42 30 -116 31q-89 1 -149 -37q194 -27 210 -224q6 -74 -26 -131q-36 -65 -108 -65q-95 1 -110 52q-17 -52 -116 -52q-45 0 -76.5 29.5t-33.5 74.5 q-1 12 5.5 32t6.5 29q0 15 -17 15q-11 0 -32 -21v60q50 61 89 100l79 79q11 11 11 27q0 34 -45 30q-24 -2 -39 -20.5t-15 -43.5q0 -14 5 -26h-58q-4 16 -4 31q0 49 26.5 79t74.5 33q96 7 111 -67q88 63 208 67q32 1 75 -7q54 -10 66 -29q28 37 102 37z" />
<glyph unicode="&#xcc;" horiz-adv-x="882" />
<glyph unicode="&#xcd;" horiz-adv-x="588" d="M280 457q-91 1 -151 -56t-61 -147t63 -146q61 -54 152 -55q90 -1 148 55t59 146t-59 146t-151 57zM117 457q26 18 81 49q-85 4 -85 70q0 8 2 15q-44 -33 -44 -75q0 -47 46 -59zM68 627q38 32 68 41q20 6 64 6q43 0 71 -20q32 -22 32 -63q0 -8 -2 -16q9 9 27 30 q20 29 31 57h63q-22 -94 -122 -153q142 -17 205 -111q42 -63 43 -142q1 -117 -74.5 -186.5t-193.5 -69.5q-117 0 -192 68q-78 70 -78 186q0 95 65 166q-63 22 -63 95q0 65 56 112zM170 587q0 -17 11.5 -28.5t28.5 -11.5t29 11.5t12 28.5t-12 28.5t-29 11.5t-28.5 -11.5 t-11.5 -28.5z" />
<glyph unicode="&#xce;" horiz-adv-x="672" d="M191 659q61 2 144 -13q259 -47 292 -329q4 -34 4 -61q0 -94 -38 -166q-48 -91 -155 -90q-39 0 -59 9q-43 19 -56 54q-26 -67 -141 -63q-81 3 -129 55t-43 133q3 52 34 92q12 16 24 21h-63v48h267q-3 13 -20 42q-21 25 -59 25q-65 0 -86 -62h-55q1 9 7 30q21 48 67 70 q25 12 71 12q69 0 104 -48q26 -35 32 -117h-148q-47 0 -80 -31.5t-36 -78.5q-5 -85 66 -125q26 -15 63 -12q42 3 69.5 26t27.5 63v75h56v-74q0 -40 36 -67q33 -26 74 -23q70 5 100 118q17 63 9 135q-10 90 -64 183q-42 -33 -123 -31q-76 2 -111 48q-24 32 -24 67q0 13 3 31 q-15 3 -60 3v51zM310 598q-3 -11 -3 -21q0 -68 92 -68q49 0 69 22q-32 26 -71 43q-21 9 -87 24zM249 569q0 -21 11 -46q-10 -3 -47 -5q-58 -3 -97 20q-44 26 -49 81q-5 60 44 97q40 31 105 41q52 8 106 8q251 0 254 -132q1 -55 -49 -87q-10 9 -21 20l-20 16q32 19 32 45 q0 85 -196 87q-65 1 -115 -12q-79 -20 -80 -68q-1 -64 93 -67q23 -1 29 2z" />
<glyph unicode="&#xcf;" horiz-adv-x="1241" />
<glyph unicode="&#xd0;" horiz-adv-x="672" d="M381 636q-1 9 -1 17q0 38 28 54q-33 7 -85 7q-194 0 -195 -80q-1 -64 93 -67q2 0 27 1q1 -25 12 -45q-25 -4 -46 -5q-58 -3 -97 20q-44 26 -49 81q-5 60 44 97q40 31 105 41q52 8 106 8q257 0 254 -132q-1 -54 -58 -73q54 -53 84 -141q28 -81 28 -163q0 -94 -38 -166 q-48 -91 -155 -90q-39 0 -59 9q-43 19 -56 54q-26 -67 -141 -63q-81 3 -129 55t-43 133q3 52 34 92q12 16 24 21h-63v48h267q-3 13 -20 42q-21 25 -59 25q-65 0 -86 -62h-55q1 9 7 30q21 48 67 70q25 12 71 12q69 0 104 -48q26 -35 32 -117h-148q-47 0 -80 -31.5t-36 -78.5 q-5 -85 66 -125q26 -15 63 -12q42 3 69.5 26t27.5 63v75h56v-74q0 -40 36 -67q33 -26 74 -23q70 5 100 118q17 63 9 135q-10 90 -64 183q-42 -33 -123 -31q-76 2 -111 48q-24 32 -24 67q0 13 3 31q-15 3 -60 3v51q87 3 190 -23zM310 598q-3 -11 -3 -21q0 -68 92 -68 q49 0 69 22q-32 26 -71 43q-21 9 -87 24zM437 644q0 -17 11.5 -28.5t28.5 -11.5t29 11.5t12 28.5t-12 28.5t-29 11.5t-28.5 -11.5t-11.5 -28.5z" />
<glyph unicode="&#xd1;" horiz-adv-x="659" d="M377 583q80 0 118 -28q30 15 24 46q-11 61 -207 61q-205 0 -200 -55q2 -24 51 -24h214zM22 201q0 42 24.5 80.5t63.5 49.5h-125v48h303q-4 78 -87 80q-35 1 -59 -18.5t-29 -53.5h-59q4 57 48 91q41 32 99 32q149 0 151 -179h-89q-41 0 -77 -11q-16 -5 -44 -22 q-57 -35 -59 -87q-4 -87 77 -127q60 -30 156 -30q114 0 177 71q60 67 65 183q5 110 -66 179q-45 44 -122 44h-233q-87 0 -87 73q0 110 257 110q100 0 156 -13q117 -27 117 -109q0 -40 -36 -73q73 -79 73 -201q0 -144 -75 -229q-78 -89 -221 -88q-299 3 -299 200z" />
<glyph unicode="&#xd2;" horiz-adv-x="642" d="M169 659v-50q36 0 62 -4q-5 -19 -5 -35q0 -59 55 -88q43 -23 107 -23q47 0 96 29q59 -91 59 -203q0 -105 -64.5 -168.5t-169.5 -63.5q-98 0 -162 44q-74 51 -74 145q0 102 75 144q37 21 99 17v52q-81 4 -135 -29q-98 -60 -98 -189q0 -116 90 -180q79 -57 199 -57 q137 0 218 76t81 212q0 173 -104 272q57 19 58 73q3 132 -254 132q-101 0 -166 -25q-96 -37 -89 -121q5 -55 49 -81q39 -23 97 -20q21 1 46 5q-11 20 -12 45l-27 -1q-40 -1 -64 12q-30 17 -29 55q2 80 195 80q52 0 85 -7q-28 -16 -28 -56q0 -8 1 -17q-78 26 -191 25z M288 598q106 -23 156 -70q-29 -20 -70 -20q-23 0 -43 7q-46 16 -46 61q0 11 3 22zM416 644q0 -17 11.5 -28.5t28.5 -11.5t29 11.5t12 28.5t-12 28.5t-29 11.5t-28.5 -11.5t-11.5 -28.5z" />
<glyph unicode="&#xd3;" horiz-adv-x="642" d="M247 403v52q-81 4 -135 -29q-98 -60 -98 -189q0 -116 90 -180q79 -57 199 -57q137 0 218 76t81 212q0 193 -124 288q-111 85 -309 83v-50q36 0 62 -4q-5 -19 -5 -35q0 -59 55 -88q43 -23 107 -23q47 0 96 29q59 -91 59 -203q0 -105 -64.5 -168.5t-169.5 -63.5 q-98 0 -162 44q-74 51 -74 145q0 102 75 144q37 21 99 17zM288 598q106 -23 156 -70q-29 -20 -70 -20q-23 0 -43 7q-46 16 -46 61q0 11 3 22zM227 569q0 -21 11 -46q-10 -3 -47 -5q-58 -3 -97 20q-44 26 -49 81q-5 60 44 97q40 31 105 41q52 8 106 8q251 0 254 -132 q1 -55 -49 -87q-10 9 -21 20l-20 16q32 19 32 45q0 85 -196 87q-65 1 -115 -12q-79 -20 -80 -68q-1 -64 93 -67q23 -1 29 2z" />
<glyph unicode="&#xd4;" horiz-adv-x="655" d="M334 581q0 -18 20 -28q17 -9 36 -9q40 0 41 26q2 38 -57 38q-40 0 -40 -27zM447 376q-20 8 -28 24q-14 27 -6 52q-19 -7 -29 -29q-6 -18 -6 -47h69zM463 433q0 -31 29 -31q31 0 31 30t-29 30q-31 0 -31 -29zM131 553q0 -35 50 -44q42 -1 75.5 -25t42.5 -63q6 -26 6 -66 v-26h-100q-100 0 -127 -77q-8 -23 -8 -49q0 -56 42 -97q64 -62 201 -62t201 62q42 41 42 97q0 87 -64 115q-25 11 -71 11h-100v26q0 39 6 66q14 62 80 82q-15 -3 -29 -3q-34 0 -64 18q-34 20 -38 52q-3 20 8 41q-153 0 -153 -58zM284 661q82 2 125 -7q81 -17 81 -74 q0 -34 -31 -55q30 15 50 43l28 39q23 32 24 52h58q-4 -43 -63 -117q-12 -16 -45 -41q37 0 59 -41q8 -15 2 -44q-10 -45 -68 -47q53 -18 82 -61.5t29 -100.5q0 -128 -119 -182q-75 -34 -184 -34q-107 0 -182 34q-119 54 -119 182q0 59 31 104t87 60q19 5 52 5h66 q-4 79 -66 80q-69 1 -72 -54q-1 -13 5 -24h-58q-2 9 -3 18q-6 46 28 80q12 12 26 18q-38 18 -38 62q0 75 101 95q41 8 114 10z" />
<glyph unicode="&#xd5;" horiz-adv-x="823" d="M374 508v-50q-59 1 -91 -12q-22 -9 -54 -40q-57 -55 -57 -162q0 -82 44 -135q47 -57 128 -57q70 0 110 33q44 36 44 104q0 35 -16 59q-19 28 -52 28q-46 0 -46 -48q0 -7 1 -14h-55q-3 23 -3 49q0 80 29 132q63 113 201 113q102 0 167 -82q62 -76 59 -180 q-3 -123 -74 -187t-194 -60v50q99 0 154 52.5t55 150.5q0 80 -45 139q-49 65 -127 65q-65 0 -111 -39.5t-55 -103.5q38 17 62 17q53 -1 83 -49q26 -41 26 -97q0 -90 -64 -139q-56 -43 -150 -45q-108 -2 -170 72q-59 69 -59 179q0 119 70 189l12 12q-37 2 -68 -26 q-60 -55 -60 -172q0 -139 70 -244h-64q-64 88 -64 234q0 264 216 264h148z" />
<glyph unicode="&#xd6;" horiz-adv-x="659" d="M387 583q-13 16 -13 37q0 26 14 40q-18 2 -76 2q-205 0 -200 -55q2 -24 51 -24h224zM472 644q-36 0 -41 -27q-3 -19 13.5 -31.5t36.5 -12.5q33 0 39 25q5 20 -11 33t-37 13zM22 201q0 42 24.5 80.5t63.5 49.5h-125v48h303q-4 78 -87 80q-35 1 -59 -18.5t-29 -53.5h-59 q4 57 48 91q41 32 99 32q149 0 151 -179h-89q-41 0 -77 -11q-16 -5 -44 -22q-57 -35 -59 -87q-4 -87 77 -127q60 -30 156 -30q114 0 177 71q60 67 65 183q5 110 -66 179q-45 44 -122 44h-233q-87 0 -87 73q0 110 257 110q110 0 156 -9q117 -23 117 -103q0 -55 -49 -71 q86 -79 86 -213q0 -144 -75 -229q-78 -89 -221 -88q-299 3 -299 200z" />
<glyph unicode="&#xd7;" horiz-adv-x="1082" d="M544 255q-26 74 -96 75q-36 1 -62 -17q9 64 55 103.5t111 39.5q21 0 64 -14q-31 -37 -31 -68h60q6 45 56 67q38 17 90 17q93 0 135 -81h-161q-116 0 -155 -39q-49 -36 -66 -83zM796 48q-204 -3 -206 141q-1 65 59 110q28 21 56 26q17 3 57 3h231q-1 7 -3 25 q-22 155 -200 155q-41 0 -56 -2q-45 -6 -75 -25q-44 27 -102 27q-138 0 -201 -113q-29 -52 -29 -132q0 -26 3 -49h55q-1 7 -1 14q0 48 46 48q33 0 52 -28q16 -24 16 -59q0 -68 -44 -104q-40 -33 -110 -33q-81 0 -128 57q-44 53 -44 135q0 107 57 162q32 31 54 40 q32 13 91 12v50h-148q-216 0 -216 -264q0 -146 64 -234h64q-70 105 -70 244q0 117 60 172q31 28 68 26l-12 -12q-70 -74 -70 -189q0 -110 59 -179q62 -74 170 -72q157 3 201 120q9 -34 42 -64q69 -63 191 -62q94 1 123 10l-53 -85h61q42 44 89 38q31 -4 31 -36q0 -13 -8 -28 q-19 -35 -90 -35q-43 0 -66 16v-58q21 -11 78 -11q64 0 105 29q47 33 47 94q0 41 -23.5 65t-64.5 24q-18 0 -35 -5l58 92h-64q-21 -54 -169 -56z" />
<glyph unicode="&#xd8;" horiz-adv-x="1156" d="M193 222q38 -4 38 -50q0 -2 -8 -33q-4 -15 -4 -26q0 -59 63 -59q37 0 57.5 23.5t20.5 60.5v57h55v-58q0 -92 77 -85q40 4 62 45q19 35 19 79q0 71 -41.5 125.5t-109.5 70.5q-9 2 -24 2q-51 0 -81 -27q-52 -47 -124 -125zM420 420q157 -21 199 -162q22 55 95 98 q36 21 125 21h161q-23 46 -53 63.5t-82 17.5q-114 0 -142 -70q-2 -5 -4 -14h-60q0 23 21 53q-57 29 -111 30q-89 1 -149 -37zM870 48q149 0 170 56h64l-58 -92q17 5 35 5q41 0 64.5 -24t23.5 -65q0 -61 -47 -94q-41 -29 -105 -29q-57 0 -78 11v58q23 -16 66 -16q71 0 90 35 q8 15 8 28q0 32 -31 36q-47 6 -89 -38h-61l52 83q-42 -12 -132 -8q-121 5 -177 58q-32 30 -43 59q-29 -112 -126 -111q-95 1 -110 52q-17 -52 -116 -52q-45 0 -76.5 29.5t-33.5 74.5q-1 12 5.5 32t6.5 29q0 15 -17 15q-11 0 -32 -21v60q50 61 89 100l79 79q11 11 11 27 q0 34 -45 30q-24 -2 -39 -20.5t-15 -43.5q0 -14 5 -26h-58q-4 15 -4 30q0 30 14 57q-26 6 -52 -30q-41 -56 -41 -177q0 -156 88 -244h-73q-37 47 -56 121q-18 68 -16 134q4 132 57 204q35 47 88 47q25 0 49 -12q23 11 43 13q96 7 111 -67q87 67 208 67q87 0 152 -39 q21 19 48 27q21 4 42 9q13 3 56 3q189 0 203 -180h-231q-40 0 -57 -3q-28 -5 -56 -26q-60 -45 -59 -110q2 -141 206 -141z" />
<glyph unicode="&#xd9;" horiz-adv-x="674" d="M84 405q0 -32 34 -32q32 0 32 34q0 32 -34 32q-32 0 -32 -34zM577 307q1 122 -67 190q-56 56 -204 58q-157 2 -267 -51v55q43 9 43 27q0 6 -7 10q-21 13 -21 37q0 81 260 81q281 0 281 -122q0 -46 -34 -65q73 -79 75 -208t-34 -211q-49 -114 -163 -108q-20 1 -59 9 q-43 18 -56 54q-17 -43 -77 -58q-25 -6 -64 -5q-80 3 -126.5 56.5t-46.5 134.5q0 60 38 96t99 39q13 1 35 -1q27 -1 36 -1q72 0 76 45q4 43 -27 67q-27 22 -71 22q-13 0 -25 -2q27 -15 27 -54q0 -77 -83 -77q-36 0 -58.5 22.5t-22.5 58.5q0 26 14 46q39 56 146 56 q67 0 110 -33q47 -36 47 -101q0 -22 -6 -41q-21 -65 -132 -58q-139 9 -144 -85q-4 -84 67 -124q26 -15 63 -12q42 3 69.5 26t27.5 63v75h56v-74q0 -40 36 -67q33 -26 74 -23q65 4 95 101q19 63 20 152zM132 590q75 16 175 16q72 0 113 -6q55 -8 95 -33q25 7 20 33 q-13 62 -216 62q-148 0 -190 -24q-9 -5 -10 -11q-2 -7 14 -20q3 -3 3 -7t-4 -10z" />
<glyph unicode="&#xda;" horiz-adv-x="633" d="M159 659q117 -3 190 -21q-3 19 4.5 40t22.5 29q-33 7 -85 7q-194 0 -195 -80q-1 -64 93 -67q2 0 27 1q1 -25 12 -45q-25 -4 -46 -5q-58 -3 -97 20q-44 26 -49 81q-5 60 44 97q40 31 105 41q52 8 106 8q257 0 254 -132q-1 -52 -60 -74q16 -12 34 -36q71 -96 74 -228 q1 -61 -21 -120q-23 -62 -66 -102q-79 -74 -224 -74q-114 0 -186 45q-86 53 -86 161q0 67 51 110q48 41 117 41h36q0 70 -58 69q-67 -2 -65 -73h-56q-4 58 30.5 91.5t93.5 32.5q61 -1 91 -45q22 -33 24 -124h-75q-129 0 -129 -108q0 -77 71 -116q57 -32 140 -32 q116 0 184 62.5t68 177.5q0 116 -60 198q-37 -31 -106 -31q-64 0 -104 27q-47 31 -47 92q0 14 3 28q-48 5 -60 4v50zM278 598q-3 -11 -3 -21q0 -47 53 -63q20 -6 39 -6q44 0 67 22q-54 48 -156 68zM405 644q0 -17 11.5 -28.5t28.5 -11.5t29 11.5t12 28.5t-12 28.5t-29 11.5 t-28.5 -11.5t-11.5 -28.5z" />
<glyph unicode="&#xdb;" horiz-adv-x="1008" />
<glyph unicode="&#xdc;" horiz-adv-x="640" d="M542 308q3 119 -66 184q-65 62 -186 63q-152 2 -251 -51v55q67 19 67 36q0 3 -4 6q-21 13 -21 37q0 46 93 65q54 11 124 11q269 0 269 -122q0 -49 -39 -73q73 -79 73 -201q0 -145 -76 -232q-80 -92 -223 -92q-132 0 -209 66q-82 70 -82 200q0 102 62 169t163 71 q44 2 77 -9v-54q-34 12 -71 10q-72 -4 -122 -55.5t-50 -123.5q0 -104 61 -162.5t166 -58.5q112 0 179 76q63 71 66 185zM159 595q62 11 132 11q115 0 191 -47q25 5 25 30q0 73 -204 73q-152 0 -157 -30q-2 -7 14 -20q3 -3 3 -7t-4 -10z" />
<glyph unicode="&#xdd;" horiz-adv-x="633" d="M91 352h-56q-4 58 30.5 91.5t93.5 32.5q61 -1 91 -45q22 -33 24 -124h-75q-129 0 -129 -108q0 -77 71 -116q57 -32 140 -32q116 0 184 62.5t68 177.5q0 116 -60 198q-37 -31 -106 -31q-64 0 -104 27q-47 31 -47 92q0 14 3 28q-48 5 -60 4v50q87 -2 132 -9 q141 -22 220 -116.5t82 -238.5q1 -61 -21 -120q-23 -62 -66 -102q-79 -74 -224 -74q-114 0 -186 45q-86 53 -86 161q0 67 51 110q48 41 117 41h36q0 70 -58 69q-67 -2 -65 -73zM278 598q-3 -11 -3 -21q0 -47 53 -63q20 -6 39 -6q44 0 67 22q-54 48 -156 68zM217 569 q0 -21 11 -46q-10 -3 -47 -5q-58 -3 -97 20q-44 26 -49 81q-5 60 44 97q40 31 105 41q52 8 106 8q251 0 254 -132q1 -55 -49 -87q-10 9 -21 20l-20 16q32 19 32 45q0 85 -196 87q-65 1 -115 -12q-79 -20 -80 -68q-1 -64 93 -67q23 -1 29 2z" />
<glyph unicode="&#xde;" horiz-adv-x="536" d="M10 189q0 -85 64 -136q56 -45 146 -54q20 -2 65 -2q43 0 67 5l-52 -83h61q42 44 89 38q31 -4 31 -36q0 -13 -8 -28q-19 -35 -90 -35q-43 0 -66 16v-58q21 -11 78 -11q64 0 105 29q47 33 47 94q0 41 -23.5 65t-64.5 24q-18 0 -35 -5l58 92h-64q-20 -53 -148 -55 q-80 -1 -134 29q-67 37 -68 111q-1 68 59 110q41 29 113 29h231q-1 7 -3 25q-22 155 -200 155q-56 0 -90 -10q-50 -15 -86 -59q-29 -35 -29 -65h60q1 5 4 14q31 70 142 70q52 0 82 -17.5t53 -63.5h-161q-135 0 -194 -77q-39 -51 -39 -111z" />
<glyph unicode="&#xdf;" horiz-adv-x="588" d="M280 457q-91 1 -151 -56t-61 -147t63 -146q61 -54 152 -55q90 -1 148 55t59 146t-59 146t-151 57zM117 457q7 5 101 62q28 17 28 36q0 58 -63 58q-39 0 -68 -22q-44 -33 -44 -75q0 -47 46 -59zM184 670q69 0 98 -48q14 -23 14 -51q23 21 32 34q20 29 31 57h63 q-22 -94 -122 -153q142 -17 205 -111q42 -63 43 -142q1 -117 -74.5 -186.5t-193.5 -69.5q-117 0 -192 68q-78 70 -78 186q0 95 65 166q-63 22 -63 95q0 66 54 111q51 44 118 44z" />
<glyph unicode="&#xe0;" horiz-adv-x="640" d="M301 -3q-134 1 -209 64q-81 68 -81 199q0 102 62 169t163 71q44 2 77 -9v-54q-34 12 -71 10q-72 -4 -122 -55.5t-50 -123.5q0 -102 62 -159.5t165 -57.5q119 0 184 70q62 66 67 187q5 110 -66 179q-45 44 -122 44h-233q-87 0 -87 73q0 110 257 110q110 0 156 -9 q117 -23 117 -103q0 -55 -49 -71q86 -79 86 -213q0 -145 -80 -232q-82 -90 -226 -89zM377 583q-13 16 -13 37q0 26 14 40q-18 2 -76 2q-205 0 -200 -55q2 -24 51 -24h224zM462 644q-36 0 -41 -27q-3 -19 13.5 -31.5t36.5 -12.5q33 0 39 25q5 20 -11 33t-37 13z" />
<glyph unicode="&#xe1;" horiz-adv-x="640" d="M301 -3q-134 1 -209 64q-81 68 -81 199q0 102 62 169t163 71q44 2 77 -9v-54q-34 12 -71 10q-72 -4 -122 -55.5t-50 -123.5q0 -102 62 -159.5t165 -57.5q115 0 182 72q64 68 69 185q5 110 -66 179q-45 44 -122 44h-233q-87 0 -87 73q0 110 257 110q100 0 156 -13 q117 -27 117 -109q0 -40 -36 -73q73 -79 73 -201q0 -143 -81 -231q-83 -91 -225 -90zM367 583q80 0 118 -28q30 15 24 46q-11 61 -207 61q-205 0 -200 -55q2 -24 51 -24h214z" />
<glyph unicode="&#xe2;" d="M512 487q-45 45 -93 58q-33 9 -115 10q-155 2 -265 -51v55q75 23 75 39q0 3 -3 5q-21 13 -21 37q0 74 222 74q278 0 278 -124q0 -42 -26 -71q71 -82 74 -202q3 -129 -32 -210q-48 -113 -163 -107q-31 2 -59 9q-43 18 -56 54q-17 -43 -77 -58q-25 -6 -64 -5 q-80 3 -126.5 56.5t-46.5 134.5q0 73 34 117q12 16 24 21h-82v48h286q-3 36 -25 58.5t-57 22.5q-84 0 -84 -77h-58q0 27 8 45q22 49 67 70q25 12 71 12q136 0 139 -179h-153q-41 0 -80 -37q-30 -28 -31 -100q-2 -88 67 -126q27 -15 63 -12q42 3 69.5 26t27.5 63v75h56v-74 q0 -40 36 -67q33 -26 74 -23q69 5 100 119q16 57 14 136q-2 112 -68 178zM168 597q56 9 137 9q137 0 213 -47q16 21 12 41q-11 62 -213 62q-157 0 -162 -28q-2 -7 14 -20q3 -3 3 -7t-4 -10z" />
<glyph unicode="&#xe3;" d="M598 89q-22 -46 -44 -65q-29 -25 -74 -25t-96 10q-43 18 -56 54q-17 -43 -77 -58q-25 -6 -64 -5q-80 3 -126.5 56.5t-46.5 134.5q0 73 34 117q12 16 24 21h-82v48h286q-3 36 -25 58.5t-57 22.5q-84 0 -84 -77h-58q0 27 8 45q22 49 67 70q25 12 71 12q136 0 139 -179h-153 q-41 0 -80 -37q-30 -28 -31 -100q-2 -88 67 -126q27 -15 63 -12q42 3 69.5 26t27.5 63v75h56v-74q0 -40 36 -67q33 -26 74 -23q69 5 100 119q16 57 14 136q-2 112 -68 178q-44 44 -122 44h-263q-87 0 -87 73q0 110 272 110q116 0 163 -9q110 -21 115 -87q4 -59 -51 -77 q96 -77 100 -229q4 -131 -41 -223zM391 583q-12 11 -14 37q-2 27 14 40q-18 2 -74 2q-144 0 -188 -23q-29 -15 -27 -32q2 -24 51 -24h238zM478 648q-36 0 -41 -27q-3 -19 13.5 -31.5t36.5 -12.5q33 0 39 25q5 20 -11 33t-37 13z" />
<glyph unicode="&#xe4;" d="M598 89q-22 -46 -44 -65q-29 -25 -74 -25t-96 10q-43 18 -56 54q-17 -43 -77 -58q-25 -6 -64 -5q-80 3 -126.5 56.5t-46.5 134.5q0 73 34 117q12 16 24 21h-82v48h286q-3 36 -25 58.5t-57 22.5q-84 0 -84 -77h-58q0 27 8 45q22 49 67 70q25 12 71 12q136 0 139 -179h-153 q-41 0 -80 -37q-30 -28 -31 -100q-2 -88 67 -126q27 -15 63 -12q42 3 69.5 26t27.5 63v75h56v-74q0 -40 36 -67q33 -26 74 -23q69 5 100 119q16 57 14 136q-2 112 -68 178q-44 44 -122 44h-263q-87 0 -87 73q0 110 272 110q278 0 278 -124q0 -42 -26 -71q71 -77 75 -207 q4 -129 -41 -223zM397 583q80 0 118 -28q19 25 15 45q-11 62 -213 62q-144 0 -188 -23q-29 -15 -27 -32q2 -24 51 -24h244z" />
<glyph unicode="&#xe5;" horiz-adv-x="804" d="M284 595q64 11 147 11q137 0 213 -47q16 21 12 41q-11 62 -213 62q-167 0 -172 -30q-2 -7 14 -20q3 -3 3 -7t-4 -10zM192 439q-6 6 -17 6q-40 1 -65 -37q-38 -58 -44 -155q-8 -137 73 -248h-65q-11 17 -30 58q-33 96 -33 184q0 95 37 166q46 89 133 87q38 -1 54 -14 q33 22 89 22q136 0 139 -179h-153q-41 0 -80 -37q-30 -28 -31 -100q-2 -88 67 -126q27 -15 63 -12q42 3 69.5 26t27.5 63v75h56v-74q0 -40 36 -67q33 -26 74 -23q69 5 100 119q16 57 14 136q-5 242 -276 246q-155 2 -265 -51v55q66 17 66 36q0 3 -4 6q-21 13 -21 37 q0 76 232 76q278 0 278 -124q0 -42 -26 -71q71 -82 74 -202q3 -129 -32 -210q-48 -113 -163 -107q-31 2 -59 9q-43 18 -56 54q-17 -43 -77 -58q-25 -6 -64 -5q-80 3 -126.5 56.5t-46.5 134.5q0 73 34 117q12 16 24 21h-75v48h279q-3 36 -25 58.5t-57 22.5q-84 0 -84 -77h-58 q0 24 7 44q2 6 7 14z" />
<glyph unicode="&#xe6;" horiz-adv-x="242" d="M86 679v-543h56v543h-56zM116 76q16 0 28 -12t12 -28t-12 -28t-28 -12t-28 12t-12 28t12 28t28 12z" />
<glyph unicode="&#xe7;" horiz-adv-x="805" d="M523 583q80 0 118 -28q19 25 15 45q-11 62 -213 62q-144 0 -188 -23q-29 -15 -27 -32q2 -24 51 -24h244zM193 441q-7 4 -18 4q-40 1 -65 -37q-38 -58 -44 -155q-8 -137 73 -248h-65q-11 17 -30 58q-33 96 -33 184q0 95 37 166q46 89 133 87q37 -1 54 -14q15 9 18 10 q26 12 71 12q136 0 139 -179h-153q-41 0 -80 -37q-30 -28 -31 -100q-2 -88 67 -126q27 -15 63 -12q42 3 69.5 26t27.5 63v75h56v-74q0 -40 36 -67q33 -26 74 -23q69 5 100 119q16 57 14 136q-2 112 -68 178q-44 44 -122 44h-263q-87 0 -87 73q0 110 272 110q278 0 278 -124 q0 -42 -26 -71q71 -77 75 -207q4 -126 -33 -208q-49 -110 -163 -104q-31 2 -59 9q-43 18 -56 54q-17 -43 -77 -58q-25 -6 -64 -5q-80 3 -126.5 56.5t-46.5 134.5q0 73 34 117q12 16 24 21h-74v48h278q-3 36 -25 58.5t-57 22.5q-84 0 -84 -77h-58q0 24 8 46z" />
<glyph unicode="&#xe8;" horiz-adv-x="669" d="M629 302q2 -113 -32 -192q-46 -108 -143 -110q-105 -3 -135 73q-29 -75 -125 -73q-98 2 -145 78q-39 63 -39 168q0 114 65 184q66 74 179 73q59 0 78 -13v-51q-25 11 -71 11q-92 0 -144 -59q-49 -55 -49 -149q0 -72 27 -123q33 -64 99 -64q43 0 69.5 33t26.5 76v88h58 v-84q0 -41 24 -75q26 -38 66 -38q74 0 108 87q25 63 24 150q-2 259 -271 263q-151 2 -260 -51v55q69 20 69 38q0 3 -4 5q-21 13 -21 37q0 75 224 75q273 0 273 -124q0 -42 -26 -71q73 -79 75 -217zM161 596q71 10 139 10q132 0 208 -47q16 21 12 41q-11 62 -208 62 q-159 0 -164 -29q-2 -7 14 -20q3 -3 3 -7t-4 -10z" />
<glyph unicode="&#xe9;" horiz-adv-x="803" d="M515 583q-12 11 -14 37q-2 27 14 40q-18 2 -74 2q-144 0 -188 -23q-29 -15 -27 -32q2 -24 51 -24h238zM602 648q-36 0 -41 -27q-3 -19 13.5 -31.5t36.5 -12.5q33 0 39 25q5 20 -11 33t-37 13zM192 443q-3 2 -17 2q-40 1 -65 -37q-38 -58 -44 -155q-8 -137 73 -248h-65 q-11 17 -30 58q-33 96 -33 184q0 95 37 166q46 89 133 87q36 -1 53 -14q7 4 17 10q26 12 71 12q136 0 139 -179h-153q-41 0 -80 -37q-30 -28 -31 -100q-2 -88 67 -126q27 -15 63 -12q42 3 69.5 26t27.5 63v75h56v-74q0 -40 36 -67q33 -26 74 -23q69 5 100 119q16 57 14 136 q-2 112 -68 178q-44 44 -122 44h-263q-87 0 -87 73q0 110 272 110q116 0 163 -9q110 -21 115 -87q4 -59 -51 -77q96 -77 100 -229q4 -126 -33 -208q-49 -110 -163 -104q-31 2 -59 9q-43 18 -56 54q-17 -43 -77 -58q-25 -6 -64 -5q-80 3 -126.5 56.5t-46.5 134.5q0 73 34 117 q12 16 24 21h-75v48h279q-3 36 -25 58.5t-57 22.5q-84 0 -84 -77h-58q0 38 16 62z" />
<glyph unicode="&#xea;" horiz-adv-x="669" d="M454 0q-105 -3 -135 73q-29 -75 -125 -73q-98 2 -145 78q-39 63 -39 168q0 114 65 184q66 74 179 73q59 0 78 -13v-51q-25 11 -71 11q-92 0 -144 -59q-49 -55 -49 -149q0 -72 27 -123q33 -64 99 -64q43 0 69.5 33t26.5 76v88h58v-84q0 -41 24 -75q26 -38 66 -38 q74 0 109 92q26 69 23 162q-4 114 -68 178q-44 44 -122 44h-253q-87 0 -87 73q0 110 266 110q274 0 274 -124q0 -42 -26 -71q75 -81 75 -207q0 -119 -31 -198q-44 -112 -144 -114zM387 583q80 0 118 -28q19 25 15 45q-11 62 -209 62q-138 0 -182 -23q-29 -15 -27 -32 q2 -24 51 -24h234z" />
<glyph unicode="&#xeb;" horiz-adv-x="670" d="M571 308q-3 113 -69 179q-44 44 -122 44h-253q-87 0 -87 73q0 110 268 110q121 0 178 -14q94 -23 98 -82q4 -57 -55 -77q97 -78 101 -229q3 -116 -34 -201q-47 -108 -142 -111q-105 -3 -135 73q-29 -75 -125 -73q-98 2 -145 78q-39 63 -39 168q0 114 65 184q66 74 179 73 q59 0 78 -13v-51q-25 11 -71 11q-92 0 -144 -59q-49 -55 -49 -149q0 -72 27 -123q33 -64 99 -64q43 0 69.5 33t26.5 76v88h58v-84q0 -41 24 -75q26 -38 66 -38q74 0 109 91q26 69 24 162zM381 583q-12 11 -14 37q-2 27 14 40q-18 2 -68 2q-140 0 -184 -23q-29 -15 -27 -32 q2 -24 51 -24h228zM468 648q-36 0 -41 -27q-3 -19 13.5 -31.5t36.5 -12.5q33 0 39 25q5 20 -11 33t-37 13z" />
<glyph unicode="&#xec;" d="M328 296q21 10 28 16q14 13 14 36q0 61 -52 90q-34 19 -79 15q-74 -6 -118.5 -56t-50.5 -125q-6 -70 13 -113q31 43 88 41q37 -2 61 -31q18 -18 23 -47q-8 43 0 84q12 62 73 90zM159 144q-19 1 -32.5 -12t-14.5 -32q-1 -20 12 -33t33 -14q19 -1 32 12t14 33q1 19 -12 32 t-32 14zM607 140q-45 -99 -126 -129q-26 -10 -67 -11q-57 -2 -97 25q-43 28 -58 81q0 -22 -2 -30q-20 -76 -93 -76q-111 0 -148 173q-10 48 -5 99q13 124 105 192q58 43 121 43q69 0 101 -16q91 -45 91 -139q0 -41 -25 -70q-10 -11 -32 -22q-26 -13 -34 -19q-28 -23 -28 -79 q0 -46 28 -76.5t73 -30.5q85 0 132 88q39 73 37 164q-2 114 -68 180q-44 44 -122 44h-263q-87 0 -87 73q0 110 272 110q278 0 278 -124q0 -42 -26 -71q72 -78 75 -207q2 -97 -32 -172zM397 583q80 0 118 -28q19 25 15 45q-11 62 -213 62q-144 0 -188 -23q-29 -15 -27 -32 q2 -24 51 -24h244z" />
<glyph unicode="&#xed;" d="M328 296q21 10 28 16q14 13 14 36q0 61 -52 90q-34 19 -79 15q-74 -6 -118.5 -56t-50.5 -125q-6 -70 13 -113q31 43 88 41q37 -2 61 -31q18 -18 23 -47q-8 43 0 84q12 62 73 90zM159 144q-19 1 -32.5 -12t-14.5 -32q-1 -20 12 -33t33 -14q19 -1 32 12t14 33q1 19 -12 32 t-32 14zM580 307q-5 244 -276 248q-155 2 -265 -51v55q66 17 66 36q0 3 -4 6q-21 13 -21 37q0 76 232 76q278 0 278 -124q0 -42 -26 -71q71 -76 74 -207q3 -99 -31 -172q-46 -100 -126 -129q-27 -10 -67 -11q-57 -2 -97 25q-43 28 -58 81q0 -22 -2 -30q-20 -76 -93 -76 q-111 0 -148 173q-10 48 -5 99q13 124 105 192q58 43 121 43q69 0 101 -16q91 -45 91 -139q0 -41 -25 -70q-10 -11 -32 -22q-26 -13 -34 -19q-28 -23 -28 -79q0 -46 28 -76.5t73 -30.5t86 34q38 31 57 75q28 64 26 143zM158 595q65 11 147 11q137 0 213 -47q16 21 12 41 q-11 62 -213 62q-167 0 -172 -30q-2 -7 14 -20q3 -3 3 -7t-4 -10z" />
<glyph unicode="&#xee;" d="M328 296q21 10 28 16q14 13 14 36q0 61 -52 90q-34 19 -79 15q-74 -6 -118.5 -56t-50.5 -125q-6 -70 13 -113q31 43 88 41q37 -2 61 -31q18 -18 23 -47q-8 43 0 84q12 62 73 90zM159 144q-19 1 -32.5 -12t-14.5 -32q-1 -20 12 -33t33 -14q19 -1 32 12t14 33q1 19 -12 32 t-32 14zM607 140q-46 -99 -126 -129q-26 -10 -67 -11q-57 -2 -97 25q-43 28 -58 81q0 -22 -2 -30q-20 -76 -93 -76q-111 0 -148 173q-10 48 -5 99q13 124 105 192q58 43 121 43q69 0 101 -16q91 -45 91 -139q0 -41 -25 -70q-10 -11 -32 -22q-26 -13 -34 -19q-28 -23 -28 -79 q0 -46 28 -76.5t73 -30.5q85 0 132 88q39 73 37 164q-2 114 -68 180q-44 44 -122 44h-263q-87 0 -87 73q0 110 272 110q116 0 163 -9q110 -21 115 -87q4 -59 -51 -77q95 -77 100 -229q3 -96 -32 -172zM391 583q-12 11 -14 37q-2 27 14 40q-18 2 -74 2q-144 0 -188 -23 q-29 -15 -27 -32q2 -24 51 -24h238zM478 648q-36 0 -41 -27q-3 -19 13.5 -31.5t36.5 -12.5q33 0 39 25q5 20 -11 33t-37 13z" />
<glyph unicode="&#xef;" horiz-adv-x="660" d="M330 465q-32 -3 -28 -38q3 -32 38 -28q32 3 28 38q-3 32 -38 28zM620 319q0 -147 -79 -233q-81 -89 -227 -89q-77 0 -121 17q-181 70 -181 272q0 154 107 209q25 13 61 11q31 -2 48.5 -23t16.5 -52q-1 -26 -24 -57q-16 -22 -16 -53q0 -21 9 -35q32 -49 93 -49q39 0 61 14 q43 27 49 88q4 41 -11 69q2 -30 -21 -47t-54 -15q-36 2 -59 23.5t-23 56.5q0 42 27.5 67t69.5 23q63 -3 98 -61q30 -49 29 -116q-1 -58 -34 -98q-48 -59 -134 -57q-67 1 -110 38q-47 39 -45 105q1 34 17 61q10 11 23 39q3 29 -29 29q-31 0 -65 -53q-27 -67 -27 -120 q0 -167 143 -218q47 -17 103 -15q39 1 50 3q94 15 154 101q42 60 42 153q0 123 -67 190q-56 56 -199 58q-147 2 -256 -51v55q65 18 65 36q0 3 -4 6q-21 13 -21 37q0 76 224 76q276 0 276 -122q0 -46 -34 -65q75 -81 75 -208zM157 595q63 11 139 11q73 0 111 -6q51 -8 92 -33 q25 7 20 33q-13 62 -211 62q-159 0 -164 -30q-2 -7 14 -20q3 -3 3 -7t-4 -10z" />
<glyph unicode="&#xf0;" horiz-adv-x="655" d="M407 503q14 13 17 17q9 12 9 33q1 56 -149 58q-153 2 -153 -58q0 -36 50 -44q42 -1 75.5 -25t42.5 -63q6 -26 6 -66v-26h-100q-100 0 -127 -77q-8 -23 -8 -49q0 -56 42 -97q64 -62 201 -62t201 62q42 41 42 97q0 87 -64 115q-25 11 -71 11h-100v26q0 39 6 66q14 62 80 82 zM447 376q-20 8 -28 24q-14 27 -6 52q-19 -7 -29 -29q-6 -18 -6 -47h69zM504 369q53 -18 82 -61.5t29 -100.5q0 -128 -119 -182q-75 -34 -184 -34q-107 0 -182 34q-119 54 -119 182q0 59 31 104t87 60q19 5 52 5h66q-4 79 -66 80q-69 1 -72 -54q-1 -13 5 -24h-58q-1 6 -4 16 q0 57 30 82q18 15 25 18q-38 18 -38 63q0 104 214 105q37 0 95 -7q112 -14 112 -86q0 -19 -22 -43q19 17 38 40q51 62 51 90h58q3 -38 -59 -114q-13 -16 -45 -41q37 0 59 -41q8 -15 2 -44q-10 -45 -68 -47zM463 433q0 -31 29 -31q31 0 31 30t-29 30q-31 0 -31 -29z" />
<glyph unicode="&#xf1;" horiz-adv-x="660" d="M330 465q-32 -3 -28 -38q3 -32 38 -28q32 3 28 38q-3 32 -38 28zM556 515q64 -79 64 -196q0 -147 -79 -233q-81 -89 -227 -89q-77 0 -121 17q-181 70 -181 272q0 154 107 209q25 13 61 11q31 -2 48.5 -23t16.5 -52q-1 -26 -24 -57q-16 -22 -16 -53q0 -21 9 -35 q32 -49 93 -49q39 0 61 14q43 27 49 88q4 41 -11 69q2 -30 -21 -47t-54 -15q-36 2 -59 23.5t-23 56.5q0 42 27.5 67t69.5 23q63 -3 98 -61q30 -49 29 -116q-1 -58 -34 -98q-48 -59 -134 -57q-67 1 -110 38q-47 39 -45 105q1 34 17 61q10 11 23 39q3 29 -29 29q-31 0 -65 -53 q-27 -67 -27 -120q0 -167 143 -218q47 -17 103 -15q39 1 50 3q94 15 154 101q42 60 42 153q0 131 -67 190q-38 34 -104 34h-263q-87 0 -87 73q0 110 272 110q248 0 275 -99q4 -15 4 -26q0 -45 -35 -74zM397 583q80 0 118 -28q19 25 15 45q-11 62 -213 62q-144 0 -188 -23 q-29 -15 -27 -32q2 -24 51 -24h244z" />
<glyph unicode="&#xf2;" horiz-adv-x="666" d="M348 462q-36 -2 -36 -33q0 -15 13 -24t28 -8q35 2 36 30q1 16 -12 26t-29 9zM596 118q-19 -53 -57 -85q-41 -35 -95 -35q-120 0 -120 93q0 31 16 48q5 5 31 18q16 8 16 16q0 12 -30 21q-20 6 -39 6q-71 0 -71 -25q0 -9 18 -20q24 -15 26 -17q16 -17 16 -49 q0 -91 -105 -89q-99 2 -150 90q-42 72 -42 178q0 89 36 159q45 87 127 83q67 -3 74 -59q2 -13 -7.5 -42t-8.5 -41q6 -65 88 -65q31 0 53.5 17t26.5 47q-23 -18 -57 -18q-37 0 -61 20t-24 56q0 84 96 84q48 0 76 -40q25 -36 25 -86q0 -64 -39 -97t-104 -33q-61 0 -98 28 q-42 32 -40 91q6 20 14 62q1 24 -24 24q-22 0 -50 -34q-44 -54 -44 -167q0 -70 33 -131q40 -73 104 -73q42 0 42 40q0 -8 -3 -8q-7 0 -28 31q-31 46 -31 58q0 71 129 71q131 0 131 -76q0 -10 -31.5 -42t-31.5 -38q0 -37 52 -37q73 0 108 94q25 67 24 161q-1 124 -67 190 q-56 56 -201 58q-151 2 -260 -51v55q72 18 72 38q0 3 -4 5q-21 13 -21 37q0 75 221 75q105 0 159 -12q122 -27 122 -107q0 -46 -37 -68q73 -79 75 -208q2 -113 -30 -201zM164 596q66 10 136 10q73 0 112 -6q52 -8 93 -33q10 1 16 12t4 21q-13 62 -213 62q-156 0 -161 -29 q-2 -7 14 -20q3 -3 3 -7t-4 -10z" />
<glyph unicode="&#xf3;" horiz-adv-x="660" d="M330 465q-32 -3 -28 -38q3 -32 38 -28q32 3 28 38q-3 32 -38 28zM620 319q0 -147 -79 -233q-81 -89 -227 -89q-77 0 -121 17q-181 70 -181 272q0 154 107 209q25 13 61 11q31 -2 48.5 -23t16.5 -52q-1 -26 -24 -57q-16 -22 -16 -53q0 -21 9 -35q32 -49 93 -49q39 0 61 14 q43 27 49 88q4 41 -11 69q2 -30 -21 -47t-54 -15q-36 2 -59 23.5t-23 56.5q0 42 27.5 67t69.5 23q63 -3 98 -61q30 -49 29 -116q-1 -58 -34 -98q-48 -59 -134 -57q-67 1 -110 38q-47 39 -45 105q1 34 17 61q10 11 23 39q3 29 -29 29q-31 0 -65 -53q-27 -67 -27 -120 q0 -167 143 -218q47 -17 103 -15q39 1 50 3q94 15 154 101q42 60 42 153q0 131 -67 190q-38 34 -104 34h-263q-87 0 -87 73q0 110 272 110q116 0 163 -9q110 -21 115 -87q2 -26 -13.5 -49t-40.5 -31q84 -74 84 -219zM391 583q-12 11 -14 37q-2 27 14 40q-18 2 -74 2 q-144 0 -188 -23q-29 -15 -27 -32q2 -24 51 -24h238zM478 648q-36 0 -41 -27q-3 -19 13.5 -31.5t36.5 -12.5q33 0 39 25q5 20 -11 33t-37 13z" />
<glyph unicode="&#xf4;" horiz-adv-x="666" d="M348 462q-36 -2 -36 -33q0 -15 13 -24t28 -8q35 2 36 30q1 16 -12 26t-29 9zM390 531h-263q-87 0 -87 73q0 110 272 110q248 0 275 -99q3 -11 3 -26q0 -46 -30 -70q30 -31 49 -94q17 -56 17 -106q0 -211 -86 -285q-42 -36 -96 -36q-120 0 -120 93q0 31 16 48q5 5 31 18 q16 8 16 16q0 12 -30 21q-20 6 -39 6q-71 0 -71 -25q0 -9 18 -20q24 -15 26 -17q16 -17 16 -49q0 -91 -105 -89q-99 2 -150 90q-42 72 -42 178q0 89 36 159q45 87 127 83q67 -3 74 -59q2 -13 -7.5 -42t-8.5 -41q6 -65 88 -65q31 0 53.5 17t26.5 47q-23 -18 -57 -18 q-37 0 -61 20t-24 56q0 84 96 84q48 0 76 -40q25 -36 25 -86q0 -64 -39 -97t-104 -33q-61 0 -98 28q-42 32 -40 91q6 20 14 62q1 24 -24 24q-22 0 -50 -34q-44 -54 -44 -167q0 -70 33 -131q40 -73 104 -73q42 0 42 40q0 -8 -3 -8q-7 0 -28 31q-31 46 -31 58q0 71 129 71 q131 0 131 -76q0 -10 -31.5 -42t-31.5 -38q0 -37 52 -37q73 0 108 94q26 70 24 161q-3 129 -69 188q-40 36 -108 36zM397 583q80 0 118 -28q19 25 15 45q-11 62 -213 62q-144 0 -188 -23q-29 -15 -27 -32q2 -24 51 -24h244z" />
<glyph unicode="&#xf5;" horiz-adv-x="649" d="M311 1q-122 1 -201 46q-99 56 -99 168q0 97 83 140q48 25 113 25h70q-2 37 -25.5 58t-60.5 21q-87 0 -87 -79h-59q-1 61 43 97q40 33 103 33q149 0 151 -179h-120q-64 0 -104 -27q-49 -32 -45 -93q10 -157 233 -157q114 0 177 71q60 67 65 183t-70 183q-70 63 -188 64 q-152 2 -251 -51v55q71 23 71 38q0 3 -4 5q-21 13 -21 37q0 46 91 64q55 11 122 11q275 0 275 -122q0 -49 -39 -73q73 -79 73 -201q0 -145 -75 -229q-78 -89 -221 -88zM163 596q60 10 128 10q121 0 197 -47q25 5 25 30q0 73 -210 73q-148 0 -153 -29q-2 -7 14 -20q3 -3 3 -7 t-4 -10z" />
<glyph unicode="&#xf6;" horiz-adv-x="666" d="M348 462q-36 -2 -36 -33q0 -15 13 -24t28 -8q35 2 36 30q1 16 -12 26t-29 9zM567 307q-3 133 -67 190q-38 34 -104 34h-269q-87 0 -87 73q0 110 278 110q128 0 184 -14q89 -22 93 -82q2 -26 -13 -49t-40 -31q84 -74 84 -219q0 -211 -86 -285q-42 -36 -96 -36 q-120 0 -120 93q0 31 16 48q5 5 31 18q16 8 16 16q0 12 -30 21q-20 6 -39 6q-71 0 -71 -25q0 -9 18 -20q24 -15 26 -17q16 -17 16 -49q0 -91 -105 -89q-99 2 -150 90q-42 72 -42 178q0 89 36 159q45 87 127 83q67 -3 74 -59q2 -13 -7.5 -42t-8.5 -41q6 -65 88 -65 q31 0 53.5 17t26.5 47q-23 -18 -57 -18q-37 0 -61 20t-24 56q0 84 96 84q48 0 76 -40q25 -36 25 -86q0 -64 -39 -97t-104 -33q-61 0 -98 28q-42 32 -40 91q6 20 14 62q1 24 -24 24q-22 0 -50 -34q-44 -54 -44 -167q0 -70 33 -131q40 -73 104 -73q42 0 42 40q0 -8 -3 -8 q-7 0 -28 31q-31 46 -31 58q0 71 129 71q131 0 131 -76q0 -10 -31.5 -42t-31.5 -38q0 -37 52 -37q73 0 108 94q26 70 24 161zM397 583q-12 11 -14 37q-2 27 14 40q-18 2 -74 2q-150 0 -194 -23q-29 -15 -27 -32q2 -24 51 -24h244zM484 648q-36 0 -41 -27q-3 -19 13.5 -31.5 t36.5 -12.5q33 0 39 25q5 20 -11 33t-37 13z" />
<glyph unicode="&#xf7;" horiz-adv-x="646" d="M240 481q-18 18 -59 19q-73 1 -119 -65q-38 -54 -48 -133q-3 -24 -3 -55q0 -89 33 -184q7 -19 30 -58h65q-81 111 -73 248q6 97 44 155q25 38 65 37q11 0 17 -6q-29 -35 -29 -65h60q1 5 4 14q31 70 142 70q52 0 82 -17.5t53 -63.5h-161q-116 0 -155 -39q-14 -11 -39 -39 q-39 -44 -39 -110q0 -69 44 -118q41 -45 110 -63q36 -9 105 -11q128 -3 180 36v-167h-334q-39 0 -39 35q0 25 31 64h-59q-26 -28 -30 -60q-5 -39 14.5 -63.5t58.5 -24.5h415v289h-53q-19 -28 -76 -46q-32 -10 -107 -11q-80 -1 -134 29q-67 37 -68 111q-1 65 59 110 q28 21 56 26q17 3 57 3h231q-1 7 -3 25q-22 155 -200 155q-83 0 -128 -27z" />
<glyph unicode="&#xf8;" horiz-adv-x="551" d="M215 0q75 -7 131 0q64 8 102 31q0 -42 -14 -66q-44 -75 -168 -77q-75 -1 -120 16q-68 26 -65 89h-57q-3 -11 -3 -23q0 -32 25 -65q54 -70 199 -70q167 0 230 84q36 48 36 152v35h-62q-14 -25 -74 -46q-26 -9 -105 -11t-134 29q-67 37 -68 111q-1 68 59 110q41 29 113 29 h231q-1 7 -3 25q-22 155 -200 155q-56 0 -90 -10q-50 -15 -86 -59q-29 -35 -29 -65h60q1 5 4 14q31 70 142 70q52 0 82 -17.5t53 -63.5h-161q-135 0 -194 -77q-39 -51 -39 -111q0 -84 62 -135q55 -46 143 -54z" />
<glyph unicode="&#xf9;" horiz-adv-x="649" d="M360 531h-233q-87 0 -87 73q0 110 257 110q110 0 156 -9q117 -23 117 -103q0 -55 -49 -71q86 -79 86 -213q0 -145 -75 -229q-78 -89 -221 -88q-122 1 -201 46q-99 56 -99 168q0 97 83 140q48 25 113 25h70q-2 37 -25.5 58t-60.5 21q-87 0 -87 -79h-59q-1 61 43 97 q40 33 103 33q149 0 151 -179h-120q-64 0 -104 -27q-49 -32 -45 -93q10 -157 233 -157q114 0 177 71q60 67 65 183q5 110 -66 179q-45 44 -122 44zM377 583q-13 16 -13 37q0 26 14 40q-18 2 -76 2q-205 0 -200 -55q2 -24 51 -24h224zM462 644q-36 0 -41 -27 q-3 -19 13.5 -31.5t36.5 -12.5q33 0 39 25q5 20 -11 33t-37 13z" />
<glyph unicode="&#xfa;" horiz-adv-x="649" d="M360 531h-233q-87 0 -87 73q0 110 257 110q100 0 156 -13q117 -27 117 -109q0 -40 -36 -73q73 -79 73 -201q0 -145 -75 -229q-78 -89 -221 -88q-122 1 -201 46q-99 56 -99 168q0 97 83 140q48 25 113 25h70q-2 37 -25.5 58t-60.5 21q-87 0 -87 -79h-59q-1 61 43 97 q40 33 103 33q149 0 151 -179h-120q-64 0 -104 -27q-49 -32 -45 -93q10 -157 233 -157q114 0 177 71q60 67 65 183q5 110 -66 179q-45 44 -122 44zM367 583q80 0 118 -28q30 15 24 46q-11 61 -207 61q-205 0 -200 -55q2 -24 51 -24h214z" />
<glyph unicode="&#xfb;" horiz-adv-x="1146" />
<glyph unicode="&#xfc;" horiz-adv-x="1146" />
<glyph unicode="&#xfd;" horiz-adv-x="653" d="M398 376q2 12 9 38q6 13 17 41q-50 -11 -54 -79h28zM480 453q-17 -26 -30 -76q54 0 85 -24q5 83 -55 100zM445 329q-5 -58 26 -65q28 -7 50 35q-30 30 -76 30zM290 421q6 -27 6 -66v-26h-89q-51 0 -70 -7q-40 -15 -60 -67q-10 -25 -8 -52q11 -159 242 -159q137 0 201 62 q42 41 42 99q0 22 -6 45q-29 -34 -72 -34q-46 0 -67 35q-18 30 -15 78h-82v26q0 45 7 67q23 73 90 82q25 18 23 49q-3 38 -60 51q-27 6 -88 7q-153 2 -153 -58q0 -35 50 -45q90 -2 109 -87zM107 494q-38 18 -38 63q0 104 214 105q38 0 95 -7q110 -14 110 -85q0 -27 -19 -51 q42 37 82 101q22 35 23 51h58q-6 -46 -72 -128q-16 -20 -48 -43q10 -4 28 -14q34 -29 46 -79q4 -17 2 -47t-9 -46q8 -9 13 -20q20 -42 21 -78q1 -37 -10 -73q-47 -152 -293 -152q-242 0 -290 151q-10 32 -10 67q0 59 30.5 103t86.5 59q19 5 52 5h59q-4 79 -59 80 q-69 1 -72 -54q-1 -13 5 -24h-58q-5 13 -5 31q0 43 35 71q12 10 23 14z" />
<glyph unicode="&#xfe;" horiz-adv-x="653" d="M366 592q18 -13 39 -10q34 5 38 40q0 39 -40 41q-15 1 -25 -8q-4 -3 -12 -17v-46zM366 486q37 26 90 23q39 38 52 57q25 36 33 50q17 29 18 48h58q-5 -50 -62 -121q-19 -24 -44 -42q21 -8 29 -15q34 -29 46 -79q4 -17 2 -47t-9 -46q8 -9 13 -20q20 -42 21 -78 q1 -37 -10 -73q-47 -152 -293 -152q-242 0 -290 151q-10 32 -10 67q0 59 30.5 103t86.5 59q19 5 52 5h59q-4 79 -59 80q-69 1 -72 -54q-1 -13 5 -24h-58q-5 13 -5 31q0 49 42 76q35 23 87 23q92 0 112 -87q6 -26 6 -66v-26h-89q-51 0 -70 -7q-40 -15 -60 -67q-10 -25 -8 -52 q11 -159 242 -159q137 0 201 62q42 41 42 99q0 22 -6 45q-29 -34 -72 -34q-46 0 -67 35q-18 30 -15 78h-82v306q0 18 -15 24q-13 5 -28.5 -5t-22.5 -23v57q23 27 59 24q30 -3 42 -26q27 27 69 25q81 -4 84 -86q1 -40 -27 -63.5t-69 -23.5q-24 0 -38 9v-61zM398 376q1 8 9 38 q1 6 15 41q-48 -11 -52 -79h28zM480 453q-17 -26 -30 -76q54 0 85 -24q5 83 -55 100zM445 329q-5 -58 26 -65q28 -7 50 35q-30 30 -76 30z" />
<glyph unicode="&#xff;" horiz-adv-x="546" d="M92 439q-29 -35 -29 -65h60q1 5 4 14q31 70 142 70q52 0 82 -17.5t53 -63.5h-161q-116 0 -155 -39q-14 -11 -39 -39q-39 -44 -39 -110q0 -69 44 -118q41 -45 110 -63q36 -9 105 -11q128 -3 180 36v-167h-334q-39 0 -39 35q0 25 31 64h-59q-26 -28 -30 -60 q-5 -39 14.5 -63.5t58.5 -24.5h415v289h-53q-19 -28 -76 -46q-32 -10 -107 -11q-80 -1 -134 29q-67 37 -68 111q-1 65 59 110q28 21 56 26q17 3 57 3h231q-1 7 -3 25q-22 155 -200 155q-56 0 -90 -10q-50 -15 -86 -59z" />
<glyph unicode="&#x152;" horiz-adv-x="921" d="M656 570q-4 -41 55 -46q19 -2 38 5q24 8 26 25q3 22 -13.5 35t-39.5 15q-62 4 -66 -34zM243 452q-50 -2 -89.5 -29t-56.5 -73q-10 -27 -10 -55q0 -46 26 -81zM304 451l-63 -113q28 23 68 22t67.5 -33t27.5 -73q0 -69 -46.5 -108t-116.5 -40q-55 -1 -113 25l-31 -57 q9 10 26 10q14 0 100 -30q26 -9 70 -10q88 -2 143.5 50t56.5 140q2 106 -66 170q-41 39 -123 47zM207 274l-52 -94q45 -21 72 -22q63 -3 96 30q-19 -7 -37 -7q-28 0 -51 19q-34 29 -28 74zM259 269q0 -17 12 -29t29 -12t29 11.5t12 28.5q0 42 -41 42q-17 0 -29 -12t-12 -29z M495 498q20 6 36 6q64 2 94 -50q20 25 42 36q-67 15 -67 71q0 38 27 50q-51 1 -77 -4q-77 -15 -86 -57q-3 -15 6.5 -31.5t24.5 -20.5zM421 594q30 44 87 57q35 8 107 8q90 0 134 -12q84 -23 84 -84q0 -52 -48 -70q38 -17 61 -63q36 -73 35 -182q-3 -256 -173 -254 q-127 1 -141 139h57q2 -43 27 -67t67 -20q59 5 86 76q19 50 19 122q0 205 -94 205q-30 0 -54 -18t-24 -47v-95h-54v89q0 27 -15 49t-41 23q-33 1 -52 -26q64 -93 62 -190q-2 -114 -73 -180.5t-185 -60.5q-57 3 -166 40q-9 3 -22 3q-33 0 -46 -21l-54 5l80 143 q-59 56 -54 147q5 92 90 155q48 36 152 41l75 133h62l-78 -138q68 -6 117 -42q1 1 3 4l1 2q-46 28 -46 79q0 29 14 50z" />
<glyph unicode="&#x153;" horiz-adv-x="496" d="M80 355h-58q-15 37 -10 69q6 39 34.5 61t67.5 20q96 -5 99 -105q2 -58 -27 -111l-56 -81q-53 -77 -56 -124q29 17 63 17q28 0 77.5 -24.5t77.5 -24.5q44 0 72 28.5t32 72.5q4 52 -26 87q-19 22 -73 54q-74 44 -72 119q1 44 31.5 69t75.5 25q46 0 75 -25t29 -70 q0 -25 -11 -52h-59q15 27 11 52q-7 42 -44 43q-41 2 -47 -40q-4 -30 16 -54q13 -16 50 -39q54 -34 77 -66q28 -40 27 -96q-2 -75 -47 -117.5t-121 -44.5q-26 -1 -80 23q-57 24 -81 26q-52 3 -63 -40h-52q0 124 48 195q20 28 60 86q31 48 36 96q3 29 -7 48q-12 23 -40 22 q-37 -1 -41 -40q-4 -38 12 -59zM366 520q27 34 27 94q0 61 -45 95q-40 31 -103 31t-105 -29q-48 -33 -48 -93q0 -117 137 -112q86 3 86 76q0 34 -21.5 54t-55.5 20q-62 0 -65 -55q-2 -34 26 -49q-52 10 -52 63q0 37 30 58q27 19 65 19q100 0 100 -87q0 -57 -34 -86zM222 582 q0 27 25 24q20 -2 18 -26q-2 -22 -20 -22q-23 0 -23 24z" />
<glyph unicode="&#x178;" horiz-adv-x="264" d="M130 661q44 0 75 -31t31 -75t-31 -75t-75 -31t-75 31t-31 75t31 75t75 31zM72 555q0 -24 17 -40t41 -16t40 17t16 41t-17 40t-41 16t-40 -17t-16 -41z" />
<glyph unicode="&#x2c6;" horiz-adv-x="980" d="M65 220q4 -117 97 -156q34 -14 90 -16q62 -2 110.5 35t52.5 98q4 53 -25.5 91t-82.5 38q-20 0 -26 -2q-11 -4 -27 -25q-40 -55 -89 -75q-19 -8 -47 -8q-44 0 -53 20zM464 248q16 60 98 108q36 21 125 21h161q-23 46 -53 63.5t-82 17.5q-114 0 -142 -70q-2 -5 -4 -14h-60 q0 27 26 61q-36 17 -79 17q-105 0 -158 -95q11 2 22 2q51 0 90 -31t56 -80zM712 49q91 1 132 34q12 10 16 21h64l-58 -92q17 5 35 5q41 0 64.5 -24t23.5 -65q0 -61 -47 -94q-41 -29 -105 -29q-57 0 -78 11v58q23 -16 66 -16q71 0 90 35q8 15 8 28q0 32 -31 36q-47 6 -89 -38 h-61l52 83q-24 -5 -67 -5q-45 0 -65 2q-99 10 -159 65q-27 25 -39 62q-17 -47 -50 -75q-68 -57 -166 -56q-111 2 -174 63t-64 171q0 23 5 67h49q-1 -44 53 -45q71 -2 103 87q13 35 -1 72q-15 42 -52 42q-61 0 -61 -68q0 -17 5 -31h-57q-9 51 9 88q31 64 105 64 q42 0 71 -25.5t32 -67.5q66 95 188 92q67 -2 114 -29q41 33 139 33q189 0 203 -180h-231q-40 0 -57 -3q-28 -5 -56 -26q-60 -45 -59 -110q1 -74 67 -111q53 -30 133 -29z" />
<glyph unicode="&#x2dc;" horiz-adv-x="364" d="M219 720h78q23 -29 23 -91q0 -28 -13 -59.5t-33 -48.5h-65q36 44 39 92q4 68 -29 107zM98 720h78q23 -29 23 -91q0 -28 -13 -59.5t-33 -48.5h-65q36 44 39 92q4 68 -29 107z" />
<glyph unicode="&#x2000;" horiz-adv-x="413" />
<glyph unicode="&#x2001;" horiz-adv-x="827" />
<glyph unicode="&#x2002;" horiz-adv-x="413" />
<glyph unicode="&#x2003;" horiz-adv-x="827" />
<glyph unicode="&#x2004;" horiz-adv-x="275" />
<glyph unicode="&#x2005;" horiz-adv-x="206" />
<glyph unicode="&#x2006;" horiz-adv-x="137" />
<glyph unicode="&#x2007;" horiz-adv-x="137" />
<glyph unicode="&#x2008;" horiz-adv-x="103" />
<glyph unicode="&#x2009;" horiz-adv-x="165" />
<glyph unicode="&#x200a;" horiz-adv-x="45" />
<glyph unicode="&#x2010;" horiz-adv-x="350" d="M35 280h255v-51h-255v51z" />
<glyph unicode="&#x2011;" horiz-adv-x="350" d="M35 280h255v-51h-255v51z" />
<glyph unicode="&#x2012;" horiz-adv-x="350" d="M35 280h255v-51h-255v51z" />
<glyph unicode="&#x2013;" horiz-adv-x="80" d="M-190 618q27 34 27 89q0 60 -46 92q-40 28 -102 28q-61 0 -103 -27q-50 -32 -50 -89q0 -110 137 -106q86 2 86 72q0 33 -22 51.5t-55 18.5q-62 0 -65 -52q-2 -32 26 -47q-52 10 -52 60q0 36 31 56q26 17 64 17q100 0 100 -82q0 -55 -34 -82zM-333 677q0 25 24 22 q8 0 13.5 -8t4.5 -16q-2 -21 -20 -21q-22 0 -22 23z" />
<glyph unicode="&#x2014;" horiz-adv-x="364" d="M139 720q-33 -39 -29 -107q3 -48 39 -92h-65q-19 16 -32.5 49t-13.5 59q0 62 23 91h78zM260 720q-33 -39 -29 -107q3 -48 39 -92h-65q-19 16 -32.5 49t-13.5 59q0 62 23 91h78z" />
<glyph unicode="&#x2018;" horiz-adv-x="256" d="M102 92q13 7 26 7q22 0 37.5 -15.5t15.5 -37.5t-15 -37t-37 -15q-23 0 -38.5 14t-15.5 37q0 32 27 47z" />
<glyph unicode="&#x2019;" horiz-adv-x="256" d="M102 92q13 7 26 7q22 0 37.5 -15.5t15.5 -37.5t-15 -37t-37 -15q-23 0 -38.5 14t-15.5 37q0 32 27 47z" />
<glyph unicode="&#x201a;" horiz-adv-x="921" d="M243 452q-50 -2 -89.5 -29t-56.5 -73q-10 -27 -10 -55q0 -46 26 -81zM304 451l-63 -113q28 23 68 22t67.5 -33t27.5 -73q0 -69 -46.5 -108t-116.5 -40q-55 -1 -113 25l-31 -57q9 10 26 10q14 0 100 -30q26 -9 70 -10q88 -2 143.5 50t56.5 140q2 106 -66 170 q-41 39 -123 47zM207 274l-52 -94q45 -21 72 -22q63 -3 96 30q-19 -7 -37 -7q-28 0 -51 19q-34 29 -28 74zM259 269q0 -17 12 -29t29 -12t29 11.5t12 28.5q0 42 -41 42q-17 0 -29 -12t-12 -29zM495 498q20 6 36 6q64 2 94 -50q34 48 89 50q52 7 58 46q4 28 -35 45 q-29 12 -63 14q-91 4 -124 -2q-77 -15 -86 -57q-3 -15 6.5 -31.5t24.5 -20.5zM501 648q40 11 114 11q217 0 217 -101q0 -49 -41 -69q34 -16 55 -59q36 -74 35 -182q-3 -256 -173 -254q-127 1 -141 139h57q2 -43 27 -67t67 -20q59 5 86 76q19 50 19 122q0 205 -94 205 q-30 0 -54 -18t-24 -47v-95h-54v89q0 27 -15 49t-41 23q-33 1 -52 -26q64 -93 62 -190q-2 -114 -73 -180.5t-185 -60.5q-57 3 -166 40q-9 3 -22 3q-33 0 -46 -21l-54 5l80 143q-59 56 -54 147q5 92 90 155q48 36 152 41l75 133h62l-78 -138q68 -6 117 -42q1 1 3 4l1 2 q-46 28 -46 79q0 78 94 104z" />
<glyph unicode="&#x201c;" horiz-adv-x="921" d="M243 452q-50 -2 -89.5 -29t-56.5 -73q-10 -27 -10 -55q0 -46 26 -81zM207 274l-52 -94q45 -21 72 -22q63 -3 96 30q-19 -7 -37 -7q-28 0 -51 19q-34 29 -28 74zM259 269q0 -17 12 -29t29 -12t29 11.5t12 28.5q0 42 -41 42q-17 0 -29 -12t-12 -29zM810 532q39 33 39 94 q0 67 -77 101q-57 25 -135 25q-82 0 -138 -22q-80 -31 -80 -100q0 -70 61 -95q41 -17 135 -17q47 0 79 15q43 20 43 61q0 74 -110 74q-38 0 -66 -10q-41 -14 -41 -45q0 -36 37 -49q-77 10 -77 65q0 41 60 61q42 14 93 14q158 0 158 -87q0 -56 -48 -85h67zM578 598 q0 28 52 28q49 0 49 -28q0 -31 -50 -31q-51 0 -51 31zM128 131l-31 -57q9 10 26 10q14 0 100 -30q26 -9 70 -10q88 -2 143.5 50t56.5 140q2 106 -66 170q-41 39 -123 47l-63 -113q28 23 68 22t67.5 -33t27.5 -73q0 -69 -46.5 -108t-116.5 -40q-55 -1 -113 25zM293 -7 q-57 3 -166 40q-9 3 -22 3q-33 0 -46 -21l-54 5l80 143q-59 56 -54 147q5 92 90 155q48 36 152 41l75 133h62l-78 -138q68 -6 117 -42q23 43 82 45q64 2 94 -50q39 49 106 48q152 -3 150 -254q-2 -256 -173 -254q-127 1 -141 139h57q2 -43 27 -67t67 -20q59 5 86 76 q19 50 19 122q0 205 -94 205q-30 0 -54 -18t-24 -47v-95h-54v89q0 27 -15 49t-41 23q-33 1 -52 -26q64 -93 62 -190q-2 -114 -73 -180.5t-185 -60.5z" />
<glyph unicode="&#x201d;" horiz-adv-x="256" d="M102 92q13 7 26 7q22 0 37.5 -15.5t15.5 -37.5t-15 -37t-37 -15q-23 0 -38.5 14t-15.5 37q0 32 27 47z" />
<glyph unicode="&#x201e;" horiz-adv-x="768" />
<glyph unicode="&#x2022;" horiz-adv-x="460" d="M11 405v-401h399v401h-399z" />
<glyph unicode="&#x2026;" horiz-adv-x="1153" d="M88 228q34 -7 34 -40q0 -7 -7 -26.5t-4 -33.5q16 -82 155 -80q74 1 123 39q55 42 55 113t-47.5 115t-118.5 43q-57 -1 -110 -52q-27 -26 -80 -78zM559 426q-44 26 -99 26q-94 0 -169 -50q78 7 132 -36q82 -66 81 -164q-1 -97 -72 -153q-65 -52 -165 -52q-83 0 -129 17 q-68 26 -84 92q-3 12 -3 21q0 8 5.5 24.5t5.5 23.5q0 12 -10 12q-18 0 -35 -25v65q66 73 91 95l58 51q32 28 33 40q2 21 -11.5 30t-35.5 8q-43 -1 -52 -50q-4 -21 6 -41h-59q-3 14 -3 28q0 67 49 98q30 19 67 18q77 -2 92 -65q95 68 206 67q82 -1 131 -34q43 36 108 36 q149 0 151 -179h-120q-64 0 -104 -27q-49 -32 -45 -93q10 -157 233 -157q114 0 177 71q60 67 65 183q5 121 -65 212q-75 99 -194 94q-76 -3 -114 -20q-55 -24 -90 -74h-61q62 146 261 146q149 0 237 -100q85 -95 85 -246q0 -145 -75 -230q-78 -90 -221 -89q-122 1 -201 46 q-99 56 -99 168q0 97 83 140q48 25 113 25h70q-2 37 -25.5 58t-60.5 21q-87 0 -87 -79h-59q0 35 8 48z" />
<glyph unicode="&#x202f;" horiz-adv-x="165" />
<glyph unicode="&#x2039;" horiz-adv-x="779" />
<glyph unicode="&#x203a;" horiz-adv-x="720" />
<glyph unicode="&#x205f;" horiz-adv-x="206" />
<glyph unicode="&#x2122;" horiz-adv-x="335" d="M278 -46v-50h-50q-39 4 -63.5 36.5t-24.5 72.5v143q0 56 -10 82q-16 41 -62 46v55q46 5 62 47q10 27 10 83v144q0 40 24.5 72.5t63.5 36.5h50v-50h-33q-40 -9 -40 -75v-143q0 -85 -65 -142q65 -49 65 -141v-142q0 -66 40 -75h33z" />
<glyph unicode="&#x25fc;" horiz-adv-x="390" d="M0 390h390v-390h-390v390z" />
</font>
</defs>
</svg>
